<?xml version="1.0" encoding="UTF-8"?>
<svg version="1.1" xmlns="http://www.w3.org/2000/svg" width="1084" height="468">
<path d="M0 0 C5.45464641 3.88529284 10.42731486 8.1315509 15.3671875 12.6484375 C17.99666032 14.99701708 20.69311033 17.22478696 23.4375 19.4375 C28.211403 23.29825137 32.73388428 27.37437075 37.25 31.53125 C40.80323693 34.7210877 44.50557238 37.70075373 48.2265625 40.69140625 C52.13595459 43.9455622 55.8110543 47.42278164 59.4921875 50.93359375 C61.95238545 52.9607662 63.99075182 54.01309603 67 55 C67.81984375 54.16855469 68.6396875 53.33710937 69.484375 52.48046875 C70.57278198 51.38267895 71.66133115 50.28503011 72.75 49.1875 C73.28882813 48.64029297 73.82765625 48.09308594 74.3828125 47.52929688 C77.11740863 44.77802637 79.79683904 42.21577882 83 40 C81.54327062 35.66182788 79.20363843 32.4045541 76.375 28.875 C75.47147754 27.72488334 74.56915151 26.57382587 73.66796875 25.421875 C73.21856934 24.84888672 72.76916992 24.27589844 72.30615234 23.68554688 C69.70815483 20.33291607 67.23664772 16.88912848 64.76171875 13.4453125 C63.65438627 11.90830555 62.53380273 10.38067224 61.39453125 8.8671875 C58 4.32212885 58 4.32212885 58 1 C62.32626551 2.46061074 65.37878019 4.66379455 68.9375 7.5 C74.26363552 11.69695772 79.69480635 15.6998982 85.24194336 19.59960938 C88.58898466 21.96026282 91.82842494 24.40830247 95 27 C99.34937038 25.3425943 102.09108181 22.08836421 105.25 18.8125 C111.50736763 12.43688704 117.95391246 6.50475589 125 1 C124.49398235 5.36248551 123.16195716 7.31948527 120.125 10.4375 C116.43031015 14.37694849 113.03706657 18.41216505 109.75 22.6875 C105.2570885 28.50054305 100.53962976 34.07295569 95.70068359 39.59985352 C91.78538692 44.07589536 87.98889145 48.63206616 84.24609375 53.25390625 C81.68109606 56.38989473 79.0634254 59.47755315 76.4375 62.5625 C73.23251482 66.33080561 70.07311916 70.12246519 67 74 C63.47116597 78.45253701 59.81770671 82.78685979 56.13671875 87.11328125 C53.21995487 90.54571609 50.34306574 94.00592815 47.5 97.5 C44.19375926 101.5633048 40.83183571 105.57299309 37.4375 109.5625 C34.23260809 113.33088939 31.07312306 117.12246028 28 121 C24.92687192 124.87754607 21.76726614 128.66899861 18.5625 132.4375 C14.49031514 137.22667258 10.47518393 142.05616963 6.50390625 146.9296875 C-1.30791948 156.50861889 -9.15972837 166.05229952 -17.16748047 175.46826172 C-20.72910195 179.66188996 -24.21119517 183.91608422 -27.68359375 188.18359375 C-30.27787344 191.33785287 -32.91610141 194.45199588 -35.5625 197.5625 C-39.43974437 202.12251277 -43.22362992 206.74193006 -46.94140625 211.43359375 C-50.88570938 216.35087489 -54.94991291 221.16977318 -59 226 C-58.01 227.65 -57.02 229.3 -56 231 C-52.28731906 229.45872649 -50.01884302 227.19156766 -47.25 224.3125 C-43.5851486 220.566925 -39.84225222 217.04938216 -35.86328125 213.64453125 C-33.38506948 211.45726258 -31.09635833 209.10720121 -28.78125 206.75 C-26.28103815 204.29365151 -23.62319484 202.03690632 -20.96875 199.75 C-19.06976929 198.06201714 -17.27994012 196.31230266 -15.5 194.5 C-12.46167583 191.40643357 -9.2523468 188.57894493 -5.96875 185.75 C-3.49389337 183.55012744 -1.19302352 181.2063509 1.125 178.84375 C2.93335089 177.06553829 4.79602528 175.4031103 6.71875 173.75 C10.91314763 170.10253026 14.96653336 166.32373782 19 162.5 C20.49725963 161.08579329 21.99465879 159.67173428 23.4921875 158.2578125 C24.24338867 157.54786133 24.99458984 156.83791016 25.76855469 156.10644531 C29.21326955 152.85469478 32.66837069 149.61407624 36.125 146.375 C36.78234131 145.75890869 37.43968262 145.14281738 38.11694336 144.50805664 C44.44711334 138.57737477 50.7886344 132.65888874 57.13232422 126.74267578 C59.02792198 124.97394678 60.92232588 123.20394751 62.81640625 121.43359375 C68.67444472 115.95939399 74.5394875 110.4936321 80.4375 105.0625 C85.95256598 99.9829235 91.42813409 94.86216906 96.89355469 89.72924805 C100.31500506 86.5161711 103.74024557 83.30739415 107.17578125 80.109375 C107.84947754 79.48208496 108.52317383 78.85479492 109.21728516 78.20849609 C110.49099697 77.02317072 111.76536627 75.83855129 113.04052734 74.65478516 C115.68966243 72.18870538 118.29260814 69.71138118 120.80078125 67.1015625 C123 65 123 65 125 65 C124.50229589 69.30306674 121.7535188 71.95130953 119 75.0625 C117.99142223 76.22720233 116.98362075 77.39257732 115.9765625 78.55859375 C115.47286133 79.13851074 114.96916016 79.71842773 114.45019531 80.31591797 C112.38209404 82.7175615 110.37630204 85.16757082 108.375 87.625 C107.27865234 88.97078125 107.27865234 88.97078125 106.16015625 90.34375 C105.44730469 91.2203125 104.73445313 92.096875 104 93 C101.00400651 96.66995043 98.00360329 100.33627603 95 104 C94.47744629 104.63744141 93.95489258 105.27488281 93.41650391 105.93164062 C87.36639011 113.30721494 81.30700249 120.67187377 75.125 127.9375 C71.43003016 132.28134581 67.82597464 136.68511905 64.28125 141.15234375 C57.03716293 150.19504833 49.63218417 159.11231126 42.125 167.9375 C38.43008666 172.28139509 34.82597613 176.68511718 31.28125 181.15234375 C24.03716293 190.19504833 16.63218417 199.11231126 9.125 207.9375 C5.43008666 212.28139509 1.82597613 216.68511718 -1.71875 221.15234375 C-9.49678539 230.86156944 -17.45125627 240.43505733 -25.53637695 249.88989258 C-27.78724331 252.5290957 -29.95600481 255.19699682 -32 258 C-30.62845496 260.95409701 -29.01136276 263.44008376 -27 266 C-23.993182 264.66000502 -22.00237391 263.20154709 -19.75 260.8125 C-17.3765867 258.30396664 -14.88788175 256.00692173 -12.28125 253.74609375 C-7.99552113 250.02497854 -3.8661294 246.15680243 0.25 242.25 C6.16380884 236.66030596 12.11131123 231.11538798 18.12109375 225.62890625 C25.98272039 218.44997175 33.78545907 211.20788042 41.5625 203.9375 C47.02748136 198.82891534 52.52199152 193.75499303 58.04296875 188.70703125 C61.18333159 185.83509341 64.31138814 182.94993466 67.4375 180.0625 C67.97777832 179.56347168 68.51805664 179.06444336 69.07470703 178.55029297 C70.16948306 177.53895328 71.2642095 176.52755992 72.35888672 175.51611328 C75.07177586 173.00985896 77.78594859 170.50499554 80.5 168 C81.58333957 167.00000676 82.66667291 166.00000676 83.75 165 C85.91666667 163 88.08333333 161 90.25 159 C90.78641113 158.50483887 91.32282227 158.00967773 91.87548828 157.49951172 C92.95714408 156.50108522 94.03884968 155.50271269 95.12060547 154.50439453 C97.85501934 151.98076354 100.58851919 149.45615518 103.3203125 146.9296875 C110.18262922 140.58530053 117.07339916 134.27419555 124 128 C124.33 128.99 124.66 129.98 125 131 C123.4453125 133.3125 123.4453125 133.3125 121.125 136 C120.29226563 136.9796875 119.45953125 137.959375 118.6015625 138.96875 C117.74304687 139.9690625 116.88453125 140.969375 116 142 C114.4946907 143.82897649 112.99452931 145.66220424 111.5 147.5 C48.5 224.5 48.5 224.5 46.23046875 227.2734375 C44.79500065 229.02817784 43.36006204 230.78335155 41.92578125 232.5390625 C36.68794837 238.9483885 31.42822781 245.33943196 26.16455078 251.72753906 C22.12618902 256.629622 18.09635225 261.53842345 14.078125 266.45703125 C12.63195373 268.2266882 11.18389508 269.99480376 9.734375 271.76171875 C4.77782733 277.80567228 -0.1316799 283.88475323 -5 290 C-3.82426949 293.22501779 -2.65039465 295.73771132 -0.375 298.3125 C0.40875 299.199375 1.1925 300.08625 2 301 C5.03726958 299.63389732 7.20915026 298.06926193 9.609375 295.76953125 C10.28226563 295.13080078 10.95515625 294.49207031 11.6484375 293.83398438 C12.68871094 292.83334961 12.68871094 292.83334961 13.75 291.8125 C18.42935204 287.34220646 23.14981106 282.96055161 28.04003906 278.72143555 C31.26405509 275.88977922 34.37781376 272.94289077 37.5 270 C41.91245719 265.86014374 46.34514148 261.76976989 50.9296875 257.8203125 C55.47810412 253.82113865 59.88594391 249.66233292 64.32861328 245.54638672 C70.49311365 239.84291822 76.68507875 234.16951003 82.9375 228.5625 C86.82370598 225.07551903 90.66842807 221.54668015 94.5 218 C99.11210702 213.73082049 103.7542206 209.49941132 108.44140625 205.3125 C110.38305625 203.55760412 112.30421667 201.78814375 114.21484375 200 C114.76068115 199.49154541 115.30651855 198.98309082 115.86889648 198.45922852 C116.93865006 197.46120815 118.00471313 196.45921411 119.06665039 195.45288086 C122.776812 192 122.776812 192 125 192 C124.49236539 196.24382531 121.85174369 198.81036813 119.125 201.875 C115.18633511 206.41047123 111.36701324 211.00175697 107.6875 215.75 C102.89633123 221.91343479 97.95843493 227.94607255 92.98339844 233.96166992 C89.31671969 238.39653302 85.68923025 242.85786513 82.109375 247.36328125 C79.32474382 250.84407023 76.50431373 254.29524046 73.6875 257.75 C69.52744642 262.85375003 65.42027374 267.99237856 61.375 273.1875 C57.41202773 278.27282497 53.31106499 283.21445588 49.12011719 288.11279297 C45.3888826 292.49322535 41.82385904 296.98763556 38.28979492 301.52783203 C32.63887379 308.77581857 26.81400521 315.88269633 21 323 C21.95001288 324.2712131 22.90065666 325.54195473 23.8515625 326.8125 C24.38088379 327.52019531 24.91020508 328.22789062 25.45556641 328.95703125 C27.25852093 331.34197014 29.11474633 333.67968779 31 336 C34.73922129 334.4186938 37.29649737 332.06769602 40.25 329.3125 C43.46649205 326.3348986 46.68574181 323.36916153 50 320.5 C53.20899244 317.71185902 56.35916444 314.86471815 59.5 312 C63.28934126 308.54424587 67.11083698 305.1347711 70.98046875 301.76953125 C75.02665089 298.22423046 79.00743187 294.60541001 83 291 C88.28259058 286.22966063 93.57934135 281.48105593 98.9453125 276.8046875 C101.2709935 274.76197909 103.57457078 272.69610294 105.875 270.625 C106.7103125 269.87347656 107.545625 269.12195313 108.40625 268.34765625 C110.18425032 266.73835175 111.95473256 265.12071326 113.71875 263.49609375 C114.5953125 262.69300781 115.471875 261.88992188 116.375 261.0625 C117.16648437 260.33160156 117.95796875 259.60070312 118.7734375 258.84765625 C120.79568821 257.16954294 122.60312855 256.04521107 125 255 C124.46947553 259.2754031 121.81459116 262.09079973 119.1875 265.3125 C118.45370117 266.22902344 118.45370117 266.22902344 117.70507812 267.1640625 C116.66741032 268.45883987 115.62680768 269.75126988 114.58349609 271.04150391 C112.54464213 273.5631947 110.52015895 276.09621917 108.49560547 278.62939453 C107.49167779 279.88504159 106.48678144 281.13991475 105.48095703 282.39404297 C102.14641036 286.5533664 98.84585206 290.73769714 95.5625 294.9375 C91.58070234 300.02908557 87.52679029 305.05692235 83.4375 310.0625 C78.71615821 315.84298901 74.13014379 321.70157581 69.609375 327.640625 C66.57814511 331.58264697 63.40715933 335.40875229 60.25 339.25 C55.82669731 344.63967937 51.68357908 350.06922885 48 356 C49.17369141 357.37285156 49.17369141 357.37285156 50.37109375 358.7734375 C51.39333531 359.97386795 52.41546493 361.17439374 53.4375 362.375 C53.95376953 362.97828125 54.47003906 363.5815625 55.00195312 364.203125 C58.88671875 368.7734375 58.88671875 368.7734375 60 371 C64.46034294 369.58079997 67.32847558 367.13383273 70.625 363.9375 C75.36985502 359.45730997 80.26618198 355.27422024 85.3515625 351.1796875 C87.97275119 349.02242601 90.49154281 346.78689 93 344.5 C97.29320142 340.58720883 101.74369507 336.91845843 106.26171875 333.26953125 C109.02087924 330.98269495 111.67021908 328.60794024 114.3125 326.1875 C117.71893936 323.07987111 121.05812694 320.38587054 125 318 C124.55267234 322.89321687 122.09259842 325.84804159 119.0625 329.5 C118.0501255 330.75337688 117.03842026 332.00729458 116.02734375 333.26171875 C115.51671387 333.88997559 115.00608398 334.51823242 114.47998047 335.16552734 C112.31619682 337.84759107 110.22067214 340.57677035 108.125 343.3125 C107.72265137 343.83682617 107.32030273 344.36115234 106.90576172 344.90136719 C105.60261515 346.59997584 104.3011141 348.29983406 103 350 C102.26160889 350.96462158 102.26160889 350.96462158 101.50830078 351.94873047 C98.27768581 356.16986883 98.27768581 356.16986883 95.05200195 360.39477539 C92.16973953 364.17324993 89.27318698 367.93935309 86.3515625 371.6875 C85.75899658 372.4515918 85.16643066 373.21568359 84.5559082 374.00292969 C83.42111126 375.46556392 82.28184558 376.92474555 81.13745117 378.37988281 C78.49473868 381.79620366 76.31958976 384.82264837 75 389 C75.38857178 389.4439209 75.77714355 389.8878418 76.17749023 390.34521484 C77.93300845 392.3532481 79.68528644 394.36408265 81.4375 396.375 C82.04916016 397.07367188 82.66082031 397.77234375 83.29101562 398.4921875 C83.87431641 399.1625 84.45761719 399.8328125 85.05859375 400.5234375 C85.59798584 401.14138184 86.13737793 401.75932617 86.69311523 402.39599609 C88 404 88 404 89 406 C92.315559 405.39147137 94.28327425 404.24896765 96.90625 402.15625 C97.64488281 401.57311035 98.38351562 400.9899707 99.14453125 400.38916016 C99.92183594 399.7657373 100.69914062 399.14231445 101.5 398.5 C103.11405866 397.22589755 104.72864362 395.95246155 106.34375 394.6796875 C107.13394531 394.05416992 107.92414063 393.42865234 108.73828125 392.78417969 C111.80251625 390.36692695 114.88953049 387.98236719 118 385.625 C118.928125 384.91601562 119.85625 384.20703125 120.8125 383.4765625 C123 382 123 382 125 382 C124.35819187 385.60079367 122.86225118 387.99311554 120.8125 391 C120.10738281 392.04027344 119.40226562 393.08054687 118.67578125 394.15234375 C116.59557857 397.16361476 114.47787434 400.14726255 112.35546875 403.12890625 C111.72084717 404.02416016 111.08622559 404.91941406 110.43237305 405.84179688 C109.15276164 407.643438 107.86653871 409.44040301 106.57348633 411.23242188 C105.68632935 412.48055664 105.68632935 412.48055664 104.78125 413.75390625 C104.24564453 414.49970947 103.71003906 415.2455127 103.15820312 416.01391602 C101.74812061 418.04873511 101.74812061 418.04873511 102 421 C103.61795274 423.36313358 103.61795274 423.36313358 105.8125 425.875 C107.03453125 427.3290625 107.03453125 427.3290625 108.28125 428.8125 C109.18722857 429.87523146 110.09348917 430.93772252 111 432 C111.96933479 433.14533867 112.93807499 434.29118079 113.90625 435.4375 C115.3324619 437.12576616 116.75971672 438.81301957 118.19262695 440.49560547 C119.46682901 441.99276358 120.73358126 443.49625239 122 445 C122.76699219 445.88945312 123.53398438 446.77890625 124.32421875 447.6953125 C126 450 126 450 126 453 C121.90108175 451.38971069 119.2379353 448.42184982 116.25 445.3125 C112.25721453 441.23244053 108.20906107 437.34325033 103.859375 433.640625 C101.10641965 431.21154675 98.57096018 428.57986404 95.99609375 425.96484375 C94.07892823 424.07769256 92.10424678 422.31314625 90.0625 420.5625 C87.07198284 417.99334729 84.26883316 415.30682744 81.5 412.5 C78.77170593 409.73439592 76.01483166 407.08712969 73.0625 404.5625 C69.05149384 401.12563389 65.37094014 397.40799257 61.6875 393.625 C58.91365745 390.91566542 56.02999966 388.38673192 53.1015625 385.84765625 C49.6541947 382.816792 46.33086834 379.6576931 43 376.5 C41.50144329 375.08448591 40.00274196 373.66912491 38.50390625 372.25390625 C37.75254395 371.54379395 37.00118164 370.83368164 36.22705078 370.10205078 C32.80506499 366.87213435 29.37174471 363.65437133 25.9375 360.4375 C25.28128662 359.82253662 24.62507324 359.20757324 23.94897461 358.57397461 C21.96614131 356.71581411 19.98310184 354.8578739 18 353 C15.35396147 350.52105221 12.70817003 348.04184107 10.0625 345.5625 C9.41152344 344.95277344 8.76054688 344.34304688 8.08984375 343.71484375 C4.53962538 340.38782182 0.9962641 337.05378354 -2.5390625 333.7109375 C-3.29453369 332.99736084 -4.05000488 332.28378418 -4.82836914 331.54858398 C-6.27155764 330.18488046 -7.71353925 328.81989804 -9.15405273 327.45336914 C-12.91217688 323.90380099 -16.72410915 320.49389322 -20.74780273 317.24633789 C-21.16102783 316.83504639 -21.57425293 316.42375488 -22 316 C-22 315.34 -22 314.68 -22 314 C-22.56203125 313.76667969 -23.1240625 313.53335937 -23.703125 313.29296875 C-26.56734142 311.68062924 -28.47252021 309.6806438 -30.75 307.3125 C-34.39372879 303.58863055 -38.11404232 300.09521681 -42.0703125 296.7109375 C-44.84107582 294.25426881 -47.402929 291.60640023 -50 288.96875 C-52.55657781 286.45211872 -55.2589427 284.13581839 -57.98046875 281.80078125 C-60.86532664 279.22840313 -63.55005797 276.4746866 -66.23828125 273.69921875 C-68.09309306 271.80910864 -68.09309306 271.80910864 -71 270 C-71 269.34 -71 268.68 -71 268 C-71.84304688 267.64808594 -71.84304688 267.64808594 -72.703125 267.2890625 C-75.54635891 265.69337 -77.48098127 263.71075457 -79.75 261.375 C-80.94882812 260.14910156 -80.94882812 260.14910156 -82.171875 258.8984375 C-82.77515625 258.27195312 -83.3784375 257.64546875 -84 257 C-85.32 257.66 -86.64 258.32 -88 259 C-88 264.07259483 -85.92410706 265.83126964 -82.6875 269.375 C-81.57433336 270.63060977 -80.46371484 271.88848255 -79.35546875 273.1484375 C-78.79134277 273.7887793 -78.2272168 274.42912109 -77.64599609 275.08886719 C-75.15757158 277.97812662 -72.82670038 280.98011279 -70.5 284 C-66.26766583 289.46456182 -61.85653113 294.74025239 -57.33544922 299.9675293 C-53.63537412 304.24712702 -50.0249528 308.5896752 -46.45703125 312.98046875 C-43.424001 316.70786523 -40.36897541 320.41682229 -37.3125 324.125 C-33.66363032 328.5522029 -30.01534951 332.9798489 -26.375 337.4140625 C-20.99987018 343.95792195 -15.61232293 350.4872528 -10.125 356.9375 C-6.43007002 361.28137921 -2.82597536 365.68511814 0.71875 370.15234375 C7.96283707 379.19504833 15.36781583 388.11231126 22.875 396.9375 C26.56991334 401.28139509 30.17402387 405.68511718 33.71875 410.15234375 C40.99983201 419.24122865 48.444529 428.20082 56 437.0625 C67 449.99830959 67 449.99830959 67 453 C63.81954562 451.58749628 61.60434662 449.88722945 59.1015625 447.48046875 C58.37453125 446.78759766 57.6475 446.09472656 56.8984375 445.38085938 C55.77308594 444.29514648 55.77308594 444.29514648 54.625 443.1875 C53.13958628 441.76268909 51.65263631 440.33947783 50.1640625 438.91796875 C49.45797852 438.2429834 48.75189453 437.56799805 48.02441406 436.87255859 C46.22107153 435.20448849 44.37815412 433.64716713 42.4609375 432.11328125 C41.64882813 431.41589844 40.83671875 430.71851563 40 430 C40 429.34 40 428.68 40 428 C39.41734375 427.74605469 38.8346875 427.49210937 38.234375 427.23046875 C35.75811967 425.86679667 34.19479374 424.35774797 32.25 422.3125 C29.5697696 419.55768063 26.85418433 416.94075141 23.9375 414.4375 C20.72697864 411.67757813 17.74642753 408.76908985 14.78125 405.75 C12.91610326 403.91757513 10.98072254 402.20646865 9 400.5 C5.77043633 397.71760668 2.76677347 394.78980571 -0.21875 391.75 C-2.08389674 389.91757513 -4.01927746 388.20646865 -6 386.5 C-9.19639227 383.74618512 -12.17309518 380.85239924 -15.12646484 377.84228516 C-16.92666921 376.07210766 -18.78056692 374.41823696 -20.6953125 372.7734375 C-25.03181139 369.0031757 -29.20906274 365.08178282 -33.375 361.125 C-38.7768464 356.01304019 -44.22221046 350.97546707 -49.78125 346.03515625 C-53.03213845 343.05326737 -56.11302195 339.91232028 -59.1875 336.75 C-60.89252684 334.92892904 -60.89252684 334.92892904 -63 334 C-63 333.34 -63 332.68 -63 332 C-63.58265625 331.74605469 -64.1653125 331.49210937 -64.765625 331.23046875 C-67.24188033 329.86679667 -68.80520626 328.35774797 -70.75 326.3125 C-73.4302304 323.55768063 -76.14581567 320.94075141 -79.0625 318.4375 C-82.27442643 315.67637026 -85.25612089 312.76644381 -88.22265625 309.74609375 C-90.06593574 307.93522357 -91.97822799 306.24678646 -93.9375 304.5625 C-96.74576347 302.14382221 -99.39970593 299.64100317 -102 297 C-104.71090995 294.26235524 -107.45805062 291.58831242 -110.3125 289 C-110.94800781 288.4225 -111.58351563 287.845 -112.23828125 287.25 C-114.04775977 285.71066529 -114.04775977 285.71066529 -117 286 C-118.45034604 287.30456502 -118.45034604 287.30456502 -119.6875 289 C-120.450625 289.99 -121.21375 290.98 -122 292 C-116.48851196 299.13889592 -110.9148891 306.18956032 -105 313 C-100.54616357 318.12922502 -96.30374653 323.38017739 -92.14453125 328.75 C-88.88018754 332.94033232 -85.48227535 336.98956463 -82 341 C-77.5462293 346.12927834 -73.30374782 351.38017572 -69.14453125 356.75 C-65.88018754 360.94033232 -62.48227535 364.98956463 -59 369 C-54.5462293 374.12927834 -50.30374782 379.38017572 -46.14453125 384.75 C-42.88018754 388.94033232 -39.48227535 392.98956463 -36 397 C-32.03177751 401.57008657 -28.20638702 406.21508774 -24.5 411 C-20.27085565 416.45723163 -15.86658405 421.72822637 -11.35083008 426.94995117 C-6.79690239 432.21763732 -2.37125428 437.57964469 2 443 C3.06154297 444.27423828 3.06154297 444.27423828 4.14453125 445.57421875 C4.79808594 446.37472656 5.45164062 447.17523438 6.125 448 C6.70507812 448.70125 7.28515625 449.4025 7.8828125 450.125 C8.25148438 450.74375 8.62015625 451.3625 9 452 C8.67 452.99 8.34 453.98 8 455 C7.5373877 454.56244385 7.07477539 454.1248877 6.59814453 453.67407227 C-4.80776987 442.88823946 -4.80776987 442.88823946 -16.421875 432.328125 C-20.43779733 428.70162544 -24.37773068 424.99444408 -28.328125 421.296875 C-33.20451789 416.73508811 -38.11490942 412.21287398 -43.04296875 407.70703125 C-47.83137494 403.32791788 -52.59297075 398.91966677 -57.35888672 394.51611328 C-60.07177586 392.00985896 -62.78594859 389.50499554 -65.5 387 C-66.58333957 386.00000676 -67.66667291 385.00000676 -68.75 384 C-69.554375 383.2575 -69.554375 383.2575 -70.375 382.5 C-114.25 342 -114.25 342 -115.8762207 340.4987793 C-116.95536014 339.50271299 -118.0346237 338.50678113 -119.11401367 337.51098633 C-121.88756693 334.95191114 -124.65866872 332.3902581 -127.42578125 329.82421875 C-133.21126559 324.46339508 -139.01292401 319.13694738 -145 314 C-148.21043882 315.38188453 -150.04936365 316.92421903 -152.25 319.625 C-153.03117187 320.57246094 -153.03117187 320.57246094 -153.828125 321.5390625 C-154.40820312 322.26222656 -154.40820312 322.26222656 -155 323 C-154.18917969 323.99257813 -153.37835937 324.98515625 -152.54296875 326.0078125 C-147.16046278 332.60844302 -141.79775703 339.21923136 -136.5625 345.9375 C-131.34845552 352.61898164 -125.96294594 359.15247797 -120.5625 365.68359375 C-113.00785683 374.82314155 -105.5483205 384.04108954 -98.15625 393.3125 C-95.28723143 396.88837821 -92.39344878 400.44387927 -89.5 404 C-85.35780888 409.0908562 -81.23505086 414.19559934 -77.14453125 419.328125 C-74.90032328 422.12418739 -72.63760237 424.90447348 -70.37158203 427.68286133 C-68.13276989 430.43090749 -65.90238007 433.18573255 -63.67236328 435.94091797 C-62.56011825 437.31035952 -61.44391687 438.67659751 -60.32373047 440.03955078 C-58.74821542 441.95652906 -57.18552287 443.88331157 -55.625 445.8125 C-55.14248779 446.39290039 -54.65997559 446.97330078 -54.1628418 447.57128906 C-52.8515625 449.20703125 -52.8515625 449.20703125 -51 452 C-51.33 452.99 -51.66 453.98 -52 455 C-52.4439209 454.58113525 -52.8878418 454.16227051 -53.34521484 453.73071289 C-55.35288747 451.83889784 -57.36389391 449.95066439 -59.375 448.0625 C-60.07367187 447.40314453 -60.77234375 446.74378906 -61.4921875 446.06445312 C-62.49765625 445.12182617 -62.49765625 445.12182617 -63.5234375 444.16015625 C-64.14138184 443.57886963 -64.75932617 442.99758301 -65.39599609 442.39868164 C-66.96363687 440.91369338 -66.96363687 440.91369338 -69 440 C-69 439.34 -69 438.68 -69 438 C-69.59296875 437.73574219 -70.1859375 437.47148437 -70.796875 437.19921875 C-73.08029054 435.95629575 -74.47426723 434.69598354 -76.25 432.8125 C-80.85739357 428.06668688 -85.76133735 423.72563579 -91 419.6875 C-91.66 419.130625 -92.32 418.57375 -93 418 C-93 417.34 -93 416.68 -93 416 C-93.58249512 415.73968994 -94.16499023 415.47937988 -94.76513672 415.21118164 C-97.15071338 413.91832105 -98.80330267 412.49757373 -100.7578125 410.62109375 C-101.46067383 409.95174805 -102.16353516 409.28240234 -102.88769531 408.59277344 C-103.62600586 407.8815332 -104.36431641 407.17029297 -105.125 406.4375 C-106.66330491 404.97186069 -108.20236258 403.50701103 -109.7421875 402.04296875 C-110.48049805 401.33962402 -111.21880859 400.6362793 -111.97949219 399.91162109 C-115.11632254 396.94383694 -118.33172037 394.06866964 -121.5546875 391.1953125 C-124.52055494 388.53266473 -127.44925724 385.83157959 -130.375 383.125 C-136.07094208 377.85623272 -141.78446468 372.60717932 -147.50732422 367.36767578 C-149.02814876 365.97420848 -150.54747324 364.57912249 -152.06640625 363.18359375 C-156.84364799 358.79546238 -161.62834587 354.41567507 -166.4375 350.0625 C-167.58025391 349.02802734 -167.58025391 349.02802734 -168.74609375 347.97265625 C-171.10797225 345.90550089 -173.53539641 343.94299437 -176 342 C-177.62866544 343.43334578 -179.25280994 344.87182979 -180.875 346.3125 C-181.77992188 347.11300781 -182.68484375 347.91351563 -183.6171875 348.73828125 C-186.13212311 350.95811057 -186.13212311 350.95811057 -188 354 C-187.63350342 354.44166504 -187.26700684 354.88333008 -186.8894043 355.33837891 C-180.20256584 363.4051405 -173.55680719 371.4933687 -167.1159668 379.75830078 C-163.63322718 384.2185958 -160.078494 388.61626621 -156.5 393 C-152.46789171 397.93942126 -148.48189147 402.90819236 -144.5625 407.9375 C-139.88575533 413.93473728 -135.0627093 419.80267526 -130.21142578 425.65917969 C-125.93799012 430.82974211 -121.75392434 436.06214776 -117.63867188 441.359375 C-115.55359111 444.0406637 -113.42907126 446.65362691 -111.19140625 449.20703125 C-109 452 -109 452 -109 455 C-111.81351786 453.71104283 -113.9325707 452.33731495 -116.171875 450.20703125 C-116.74969727 449.66272461 -117.32751953 449.11841797 -117.92285156 448.55761719 C-118.52581055 447.98172852 -119.12876953 447.40583984 -119.75 446.8125 C-121.00963593 445.62547304 -122.2700465 444.43926755 -123.53125 443.25390625 C-124.43423828 442.4033667 -124.43423828 442.4033667 -125.35546875 441.53564453 C-127.87484598 439.1830788 -130.4692744 436.9239597 -133.078125 434.671875 C-135.41105074 432.64241927 -137.70511245 430.572353 -140 428.5 C-142.98062721 425.81016569 -145.97245233 423.13689636 -149 420.5 C-152.89512811 417.10746907 -156.72782763 413.64805799 -160.5625 410.1875 C-162.69417481 408.27445851 -164.8401911 406.38112388 -167 404.5 C-170.89512811 401.10746907 -174.72782763 397.64805799 -178.5625 394.1875 C-181.32876184 391.70495732 -184.12619698 389.26059777 -186.9296875 386.8203125 C-189.34827961 384.6937768 -191.73653963 382.53530894 -194.125 380.375 C-197.6845614 377.16150707 -201.28439311 374.03115299 -205 371 C-208.09244895 372.40126593 -210.45542907 374.07109084 -213 376.3125 C-213.66 376.88613281 -214.32 377.45976562 -215 378.05078125 C-217.22380932 380.21812666 -219.10540253 382.54294391 -221 385 C-220.63874023 385.46148437 -220.27748047 385.92296875 -219.90527344 386.3984375 C-213.08533755 395.118305 -206.30830932 403.86381599 -199.68920898 412.73730469 C-195.43421537 418.43679539 -191.12689932 424.09538941 -186.8125 429.75 C-186.13147217 430.64549561 -185.45044434 431.54099121 -184.7487793 432.46362305 C-181.83604364 436.29281258 -178.91872218 440.1161002 -175.9453125 443.8984375 C-175.5124292 444.45563477 -175.0795459 445.01283203 -174.63354492 445.58691406 C-173.53206571 447.0033907 -172.4207782 448.41222576 -171.30859375 449.8203125 C-170.66083984 450.89925781 -170.66083984 450.89925781 -170 452 C-170.33 452.99 -170.66 453.98 -171 455 C-176.84493853 450.34015728 -182.53022431 445.59147041 -188 440.5 C-191.73324704 437.02577251 -195.52371154 433.69931255 -199.5 430.5 C-203.47630232 427.3006763 -207.26661622 423.97408767 -211 420.5 C-215.66380487 416.1617872 -220.47896986 412.07934939 -225.44140625 408.08203125 C-229.04526763 405.14942344 -232.53159795 402.09075369 -236 399 C-242.73304432 403.62661705 -248.33998772 409.13121677 -254 415 C-250.47161779 421.72242176 -246.41701311 427.89472635 -242 434.0625 C-230 450.89583333 -230 450.89583333 -230 455 C-232.89620795 453.66224486 -235.21482634 452.14626036 -237.65234375 450.09375 C-238.34046143 449.51906982 -239.0285791 448.94438965 -239.73754883 448.35229492 C-240.46353271 447.7410376 -241.1895166 447.12978027 -241.9375 446.5 C-247.34806301 442.00098344 -252.76499888 437.51725697 -258.3125 433.1875 C-259.31925781 432.39730469 -260.32601562 431.60710937 -261.36328125 430.79296875 C-264.43833935 428.63240826 -264.43833935 428.63240826 -268 428 C-269.74375784 429.17196173 -269.74375784 429.17196173 -271.25 431 C-273.70822366 433.6469146 -276.18529067 436.09622959 -278.9375 438.4375 C-281.78610397 440.88465978 -284.44531134 443.43202403 -287.0625 446.125 C-290.4585251 449.58154832 -293.97176404 452.31450936 -298 455 C-297.41096527 451.13557516 -295.61765921 449.01199889 -293.125 446.0625 C-291.90683594 444.61037109 -291.90683594 444.61037109 -290.6640625 443.12890625 C-289.77651865 442.08553157 -288.88848638 441.04257218 -288 440 C-287.09075005 438.92611624 -286.18190005 437.85189371 -285.2734375 436.77734375 C-283.87979973 435.12975749 -282.48542069 433.48283615 -281.08837891 431.83813477 C-278.18859047 428.42135721 -275.32913647 424.97579623 -272.5 421.5 C-269.21176186 417.46016457 -265.87265239 413.46919573 -262.5 409.5 C-258.44987401 404.7308879 -254.45647887 399.92087568 -250.50390625 395.0703125 C-247.38657026 391.24780691 -244.2580706 387.43461513 -241.125 383.625 C-240.52284668 382.89273193 -239.92069336 382.16046387 -239.30029297 381.40600586 C-235.67608693 377.00783505 -232.01345432 372.64615917 -228.3125 368.3125 C-224.54574545 363.90164971 -220.9300696 359.39540005 -217.375 354.8125 C-213.480515 349.79265165 -209.40616725 345.02894754 -205.10546875 340.34765625 C-202.31574754 337.23703947 -199.74626172 333.97550194 -197.16015625 330.6953125 C-194.68182581 327.60300147 -192.13085002 324.58005704 -189.5625 321.5625 C-185.49009484 316.77351818 -181.47517934 311.94382474 -177.50390625 307.0703125 C-174.38657026 303.24780691 -171.2580706 299.43461513 -168.125 295.625 C-167.52284668 294.89273193 -166.92069336 294.16046387 -166.30029297 293.40600586 C-162.67608693 289.00783505 -159.01345432 284.64615917 -155.3125 280.3125 C-151.54574545 275.90164971 -147.9300696 271.39540005 -144.375 266.8125 C-140.48165453 261.79412047 -136.40847128 257.03178433 -132.109375 252.3515625 C-129.30984496 249.23060494 -126.72349263 245.96359267 -124.12890625 242.671875 C-120.17435901 237.70873681 -116.07716097 232.86251575 -112 228 C-112.99 226.35 -113.98 224.7 -115 223 C-117.33682418 224.99603732 -119.66973558 226.99632567 -122 229 C-122.66 229.56460938 -123.32 230.12921875 -124 230.7109375 C-127.9053634 234.0823645 -131.6044258 237.56996081 -135.21875 241.25 C-137.71896185 243.70634849 -140.37680516 245.96309368 -143.03125 248.25 C-144.93023071 249.93798286 -146.72005988 251.68769734 -148.5 253.5 C-151.53832417 256.59356643 -154.7476532 259.42105507 -158.03125 262.25 C-159.93023071 263.93798286 -161.72005988 265.68769734 -163.5 267.5 C-166.53832417 270.59356643 -169.7476532 273.42105507 -173.03125 276.25 C-175.50619257 278.44994895 -177.80713674 280.79381445 -180.12524414 283.15649414 C-181.93223688 284.93336641 -183.79344934 286.59436873 -185.71484375 288.24609375 C-189.93292779 291.91403503 -194.00692347 295.71661251 -198.0625 299.5625 C-199.56095214 300.97812478 -201.05965478 302.39348445 -202.55859375 303.80859375 C-203.67596924 304.86409424 -203.67596924 304.86409424 -204.81591797 305.94091797 C-208.07510007 309.01356964 -211.34861448 312.07071291 -214.625 315.125 C-215.54067749 315.97880249 -215.54067749 315.97880249 -216.47485352 316.84985352 C-217.70221498 317.99408109 -218.9296722 319.13820594 -220.15722656 320.28222656 C-223.27293906 323.18659237 -226.38634111 326.09343299 -229.5 329 C-230.74998918 330.16667826 -231.99998917 331.33334493 -233.25 332.5 C-233.86875 333.0775 -234.4875 333.655 -235.125 334.25 C-242 340.66666667 -248.875 347.08333333 -255.75 353.5 C-256.36891113 354.07766113 -256.98782227 354.65532227 -257.62548828 355.25048828 C-258.87381737 356.41557375 -260.12218967 357.58061291 -261.37060547 358.74560547 C-264.52152888 361.68608369 -267.67166566 364.62739654 -270.8203125 367.5703125 C-273.32340149 369.90983647 -275.82876361 372.24688582 -278.3359375 374.58203125 C-280.80715628 376.88388917 -283.26936013 379.19490946 -285.7265625 381.51171875 C-286.90092402 382.61210474 -288.07539818 383.71237053 -289.25 384.8125 C-289.78705566 385.32248535 -290.32411133 385.8324707 -290.87744141 386.35791016 C-293.25385875 388.57482611 -294.87488135 389.95829378 -298 391 C-296.48659124 386.14068152 -293.69654054 383.02991144 -290.375 379.3125 C-289.278668 378.06101592 -288.18361814 376.8084075 -287.08984375 375.5546875 C-286.5572998 374.94592773 -286.02475586 374.33716797 -285.47607422 373.70996094 C-283.56820063 371.49978122 -281.7452322 369.2300502 -279.9375 366.9375 C-276.93600497 363.13601973 -273.83391226 359.43159845 -270.6875 355.75 C-266.86441384 351.27145212 -263.17157653 346.71499272 -259.5625 342.0625 C-255.30592974 336.58061126 -250.87541019 331.28164992 -246.33569336 326.03271484 C-242.64215047 321.76076612 -239.03765924 317.42635511 -235.4765625 313.04296875 C-232.33406883 309.18176596 -229.16708425 305.34103911 -226 301.5 C-222.09213919 296.75966479 -218.19177985 292.01378352 -214.3125 287.25 C-211.58611733 283.90879536 -208.82125129 280.60580103 -206.02246094 277.32543945 C-201.75321958 272.32153655 -197.59525856 267.2592791 -193.5625 262.0625 C-189.30582122 256.58069109 -184.87541533 251.28165586 -180.33569336 246.03271484 C-176.64215047 241.76076612 -173.03765924 237.42635511 -169.4765625 233.04296875 C-166.33406843 229.18176547 -163.16702746 225.34108648 -160 221.5 C-155.26915501 215.75978168 -150.55025159 210.01019598 -145.84375 204.25 C-143.57886019 201.48606667 -141.29488429 198.73905544 -139 196 C-140.44859426 192.61994673 -142.37330171 190.5412772 -145 188 C-145.93199219 188.87140625 -146.86398437 189.7428125 -147.82421875 190.640625 C-155.66119768 197.96411099 -163.51832065 205.2647237 -171.40722656 212.53222656 C-174.10649964 215.01966214 -176.80309891 217.50999333 -179.5 220 C-180.58332086 221.00001352 -181.66665418 222.00001352 -182.75 223 C-183.28625 223.495 -183.8225 223.99 -184.375 224.5 C-202.25 241 -202.25 241 -203.87451172 242.49951172 C-204.95952256 243.50108526 -206.04448338 244.502713 -207.12939453 245.50439453 C-209.81165757 247.98076272 -212.49473934 250.45623064 -215.1796875 252.9296875 C-220.99300041 258.28712413 -226.78773321 263.66351874 -232.5625 269.0625 C-238.02745856 274.17110874 -243.52199183 279.24500725 -249.04296875 284.29296875 C-252.18333159 287.16490659 -255.31138814 290.05006534 -258.4375 292.9375 C-259.24791748 293.68604248 -259.24791748 293.68604248 -260.07470703 294.44970703 C-261.16948306 295.46104672 -262.2642095 296.47244008 -263.35888672 297.48388672 C-264.99020187 298.99094817 -266.62195809 300.4975303 -268.25390625 302.00390625 C-268.79015625 302.49890625 -269.32640625 302.99390625 -269.87890625 303.50390625 C-270.95557906 304.49755851 -272.03240087 305.49104934 -273.109375 306.484375 C-275.90910125 309.0671733 -278.70527131 311.65367469 -281.49609375 314.24609375 C-282.36041016 315.04756836 -282.36041016 315.04756836 -283.2421875 315.86523438 C-284.33316803 316.87703084 -285.42309811 317.88996176 -286.51171875 318.90429688 C-289.91516624 322.05774886 -293.41406088 325.05536147 -297 328 C-297.495 326.515 -297.495 326.515 -298 325 C-296.25999742 322.67293568 -294.51115242 320.57813225 -292.5625 318.4375 C-291.44144697 317.17038568 -290.32165813 315.90215179 -289.203125 314.6328125 C-288.65205078 314.01180664 -288.10097656 313.39080078 -287.53320312 312.75097656 C-284.88625678 309.72806268 -282.41353576 306.57248736 -279.921875 303.421875 C-276.33623264 298.90338259 -272.65876306 294.45931292 -269 290 C-267.49971683 288.16689838 -265.99971592 286.33356573 -264.5 284.5 C-240.5 255.16666667 -216.5 225.83333333 -192.5 196.5 C-191.75234375 195.58605469 -191.0046875 194.67210937 -190.234375 193.73046875 C-188.78702949 191.96177205 -187.33914699 190.19351457 -185.890625 188.42578125 C-179.23692827 180.30292886 -172.61752198 172.15233186 -166 164 C-167.17573051 160.77498221 -168.34960535 158.26228868 -170.625 155.6875 C-171.800625 154.3571875 -171.800625 154.3571875 -173 153 C-177.82029412 156.41802674 -182.12988831 159.99299018 -186.2421875 164.234375 C-187.97461589 165.97450307 -189.76541033 167.58467375 -191.625 169.1875 C-195.23575846 172.30334755 -198.75128531 175.50982116 -202.25 178.75 C-203.08325806 179.52150391 -203.08325806 179.52150391 -203.93334961 180.30859375 C-205.06519569 181.35683478 -206.19695001 182.40517489 -207.32861328 183.45361328 C-214.31635836 189.9187575 -221.35244599 196.3291182 -228.4375 202.6875 C-231.82398321 205.74359461 -235.18244814 208.82985612 -238.54125977 211.91625977 C-241.65633125 214.77602204 -244.78851675 217.61515359 -247.9375 220.4375 C-251.82370598 223.92448097 -255.66842807 227.45331985 -259.5 231 C-264.1208289 235.2772529 -268.7750563 239.51309922 -273.46484375 243.71484375 C-275.84364675 245.85906525 -278.20588361 248.01975042 -280.56274414 250.18798828 C-284.56757765 253.87175919 -288.57386656 257.55469012 -292.625 261.1875 C-293.23601563 261.73792969 -293.84703125 262.28835938 -294.4765625 262.85546875 C-296 264 -296 264 -298 264 C-296.52745531 259.32096745 -293.77835457 256.14638565 -290.5625 252.5625 C-286.44406409 247.86941299 -282.44739086 243.12496228 -278.625 238.1875 C-274.50787041 232.88009239 -270.28617657 227.67183173 -266 222.5 C-261.76344097 217.38535319 -257.57912945 212.24113665 -253.5 207 C-248.8402126 201.01279542 -244.03067485 195.15906531 -239.19140625 189.31640625 C-235.56298581 184.92577932 -231.99847698 180.49470625 -228.5 176 C-224.45533074 170.80697363 -220.31749795 165.69940385 -216.125 160.625 C-215.54057129 159.91682129 -214.95614258 159.20864258 -214.35400391 158.47900391 C-211.9632531 155.58341488 -209.57141846 152.68875787 -207.17382812 149.79882812 C-205.4026259 147.66156473 -203.6382695 145.51880953 -201.875 143.375 C-201.34277832 142.73643066 -200.81055664 142.09786133 -200.26220703 141.43994141 C-197.02096316 137.48651931 -194.42070094 133.50551514 -192 129 C-192.66 129 -193.32 129 -194 129 C-195.40234375 127.35546875 -195.40234375 127.35546875 -196.9375 125.1875 C-198.80547282 122.56469417 -200.65869193 120.21550645 -203 118 C-203.70125 118.64066406 -204.4025 119.28132813 -205.125 119.94140625 C-210.0362995 124.41896327 -214.96537317 128.86907199 -219.98046875 133.23046875 C-224.02665089 136.77576954 -228.00743187 140.39458999 -232 144 C-237.28259058 148.77033937 -242.57934135 153.51894407 -247.9453125 158.1953125 C-251.99969003 161.75638173 -255.9951293 165.3834804 -260 169 C-265.27985576 173.76786975 -270.57291806 178.51512218 -275.9375 183.1875 C-278.30964429 185.27211164 -280.65556065 187.38428644 -283 189.5 C-283.8353125 190.25152344 -284.670625 191.00304687 -285.53125 191.77734375 C-287.1385348 193.2244087 -288.74286268 194.67476693 -290.34375 196.12890625 C-291.0553125 196.76699219 -291.766875 197.40507812 -292.5 198.0625 C-293.44359375 198.91521484 -293.44359375 198.91521484 -294.40625 199.78515625 C-296 201 -296 201 -298 201 C-297.40571044 197.87848767 -296.47912631 196.02915283 -294.4453125 193.6015625 C-293.91873047 192.96476563 -293.39214844 192.32796875 -292.84960938 191.671875 C-291.99592773 190.65867188 -291.99592773 190.65867188 -291.125 189.625 C-289.92869721 188.18050706 -288.73340076 186.73518017 -287.5390625 185.2890625 C-286.9399707 184.5662207 -286.34087891 183.84337891 -285.72363281 183.09863281 C-283.26485037 180.10490847 -280.87855714 177.05757688 -278.5 174 C-274.60606208 169.0082274 -270.63548062 164.08601561 -266.625 159.1875 C-262.14075959 153.70440035 -257.7789383 148.14463923 -253.5 142.5 C-248.70463723 136.17411006 -243.77923686 129.97511407 -238.75415039 123.83056641 C-235.11128903 119.37429369 -231.5021882 114.89410472 -227.9375 110.375 C-227.49647949 109.81917236 -227.05545898 109.26334473 -226.60107422 108.69067383 C-223.8805895 105.22924408 -221.39727046 101.68725664 -219 98 C-220.79057247 95.87406947 -222.58240553 93.74922444 -224.375 91.625 C-224.88289062 91.02171875 -225.39078125 90.4184375 -225.9140625 89.796875 C-226.40390625 89.21679688 -226.89375 88.63671875 -227.3984375 88.0390625 C-227.84880371 87.50490723 -228.29916992 86.97075195 -228.76318359 86.42041016 C-229.79399612 85.23658322 -230.89004039 84.10995961 -232 83 C-237.44961941 87.38248861 -242.83146925 91.78849367 -248 96.5 C-251.31989486 99.52282421 -254.69764112 102.42512161 -258.1875 105.25 C-262.66215703 108.87264194 -267.03369337 112.59502155 -271.375 116.375 C-276.25684223 120.62064801 -281.14043966 124.86347038 -286.0625 129.0625 C-287.06410156 129.91972656 -288.06570313 130.77695313 -289.09765625 131.66015625 C-291.9795116 133.98348243 -294.89066939 135.99949457 -298 138 C-297.4774641 133.6660258 -296.09807172 131.51384861 -293.25 128.25 C-289.2558207 123.53420987 -285.43011424 118.7304899 -281.6875 113.8125 C-280.85641724 112.72231567 -280.85641724 112.72231567 -280.00854492 111.61010742 C-275.84456214 106.13580988 -271.72503504 100.6288108 -267.61035156 95.11743164 C-261.99100355 87.614135 -256.21513808 80.23249503 -250.43530273 72.85253906 C-248.93574204 70.91706252 -247.46416123 68.96235071 -246 67 C-247.71987266 62.84364107 -250.59426668 59.73874296 -253.5 56.375 C-253.99886719 55.78976563 -254.49773438 55.20453125 -255.01171875 54.6015625 C-256.9507393 52.33503982 -258.89013044 50.10986956 -261 48 C-263.83427275 50.0820575 -266.66726235 52.1658545 -269.5 54.25 C-270.35263428 54.87664551 -271.20526855 55.50329102 -272.08374023 56.14892578 C-276.32771126 59.27332646 -280.5586341 62.4119881 -284.75390625 65.6015625 C-285.84638672 66.43059082 -285.84638672 66.43059082 -286.9609375 67.27636719 C-288.34294399 68.32764257 -289.72194926 69.38287719 -291.09765625 70.44238281 C-295.77937318 74 -295.77937318 74 -298 74 C-297.09118619 69.59150319 -294.7490537 66.43264151 -292.1875 62.8125 C-291.70555176 62.11995117 -291.22360352 61.42740234 -290.72705078 60.71386719 C-288.05981191 56.89079624 -285.35524836 53.09531407 -282.63671875 49.30859375 C-282.09184814 48.54635498 -281.54697754 47.78411621 -280.9855957 46.9987793 C-279.92886138 45.52332382 -278.86637428 44.05196808 -277.79760742 42.58520508 C-277.31525635 41.91255615 -276.83290527 41.23990723 -276.3359375 40.546875 C-275.90845215 39.95745117 -275.4809668 39.36802734 -275.04052734 38.76074219 C-273.87556297 36.78943222 -273.26445132 35.27865571 -273 33 C-274.57095336 30.76615881 -276.10554292 28.87376609 -277.9375 26.875 C-278.96208594 25.71455465 -279.98551424 24.5530862 -281.0078125 23.390625 C-281.51731445 22.81763672 -282.02681641 22.24464844 -282.55175781 21.65429688 C-284.55007519 19.37166058 -286.43456005 17.00713394 -288.3125 14.625 C-290.63890729 11.67981633 -293.01635485 8.81363996 -295.5 6 C-298 3 -298 3 -298 1 C-294.7155596 1.57945005 -293.12506104 2.51860416 -290.828125 4.9140625 C-289.96127075 5.80315308 -289.96127075 5.80315308 -289.0769043 6.71020508 C-288.47402588 7.3420874 -287.87114746 7.97396973 -287.25 8.625 C-285.99277996 9.9146101 -284.73368166 11.20239193 -283.47265625 12.48828125 C-282.56990967 13.40988037 -282.56990967 13.40988037 -281.64892578 14.35009766 C-279.16841254 16.83207996 -276.53165987 19.09793397 -273.85546875 21.36328125 C-270.83175402 24.03051593 -268.05307203 26.93933865 -265.22265625 29.80859375 C-262.5729856 32.42101068 -259.78827197 34.83302621 -256.96484375 37.25390625 C-254.18438168 39.72481389 -251.60881782 42.3816694 -249 45.03125 C-247.06108998 46.93986455 -245.06300449 48.72710552 -243 50.5 C-239.48858352 53.51762353 -236.24692598 56.73359081 -233 60.03125 C-231.06108998 61.93986455 -229.06300449 63.72710552 -227 65.5 C-224.21103607 67.89676588 -221.58009215 70.37959391 -219 73 C-216.44009866 75.59982183 -213.8322046 78.06268398 -211.0625 80.4375 C-207.25175937 83.71130653 -203.74921835 87.23363971 -200.22265625 90.80859375 C-197.5729856 93.42101068 -194.78827197 95.83302621 -191.96484375 98.25390625 C-189.18438168 100.72481389 -186.60881782 103.3816694 -184 106.03125 C-182.06108998 107.93986455 -180.06300449 109.72710552 -178 111.5 C-174.48858352 114.51762353 -171.24692598 117.73359081 -168 121.03125 C-166.06108998 122.93986455 -164.06300449 124.72710552 -162 126.5 C-158.48858352 129.51762353 -155.24692598 132.73359081 -152 136.03125 C-150.06108998 137.93986455 -148.06300449 139.72710552 -146 141.5 C-142.48858352 144.51762353 -139.24692598 147.73359081 -136 151.03125 C-134.06108998 152.93986455 -132.06300449 154.72710552 -130 156.5 C-127.21103607 158.89676588 -124.58009215 161.37959391 -122 164 C-119.44009866 166.59982183 -116.8322046 169.06268398 -114.0625 171.4375 C-110.25455671 174.70890333 -106.75435936 178.22836891 -103.23046875 181.80078125 C-100.54420354 184.44941052 -97.72549244 186.9044123 -94.86328125 189.359375 C-92.11033016 191.78335709 -89.56087877 194.37509926 -87 197 C-84.525 196.01 -84.525 196.01 -82 195 C-82.58773407 191.9005027 -83.4651723 190.11539483 -85.546875 187.7578125 C-86.3203125 186.87029297 -86.3203125 186.87029297 -87.109375 185.96484375 C-87.92148437 185.05412109 -87.92148437 185.05412109 -88.75 184.125 C-89.80765244 182.91958729 -90.86494753 181.71386093 -91.921875 180.5078125 C-92.43556641 179.92290039 -92.94925781 179.33798828 -93.47851562 178.73535156 C-93.98060547 178.16268555 -94.48269531 177.59001953 -95 177 C-95.49693359 176.43506836 -95.99386719 175.87013672 -96.50585938 175.28808594 C-100 171.22965885 -100 171.22965885 -100 169 C-100.66 169 -101.32 169 -102 169 C-103.26171875 167.56640625 -103.26171875 167.56640625 -104.6875 165.5625 C-105.21472656 164.83675781 -105.74195313 164.11101562 -106.28515625 163.36328125 C-106.85105469 162.58339844 -107.41695312 161.80351562 -108 161 C-109.20042785 159.41066464 -110.40872165 157.82723837 -111.625 156.25 C-112.17414063 155.53328125 -112.72328125 154.8165625 -113.2890625 154.078125 C-114.97710393 151.95902994 -114.97710393 151.95902994 -116.96875 150.03515625 C-119.12959241 147.87015837 -120.98785982 145.5937932 -122.875 143.1875 C-125.34678746 140.05379193 -127.85551849 136.98914142 -130.5 134 C-133 131 -133 131 -133 129 C-133.66 129 -134.32 129 -135 129 C-136.26171875 127.56640625 -136.26171875 127.56640625 -137.6875 125.5625 C-138.21472656 124.83675781 -138.74195313 124.11101562 -139.28515625 123.36328125 C-139.85105469 122.58339844 -140.41695312 121.80351562 -141 121 C-142.20042785 119.41066464 -143.40872165 117.82723837 -144.625 116.25 C-145.17414063 115.53328125 -145.72328125 114.8165625 -146.2890625 114.078125 C-147.97710393 111.95902994 -147.97710393 111.95902994 -149.96875 110.03515625 C-152.12959241 107.87015837 -153.98785982 105.5937932 -155.875 103.1875 C-158.34678746 100.05379193 -160.85551849 96.98914142 -163.5 94 C-166 91 -166 91 -166 89 C-166.66 89 -167.32 89 -168 89 C-169.26171875 87.53125 -169.26171875 87.53125 -170.6875 85.5 C-173.45944086 81.65350429 -176.47071381 78.15086941 -179.6796875 74.6640625 C-181 73 -181 73 -181 71 C-181.66 71 -182.32 71 -183 71 C-184.27184122 69.40273461 -185.4670044 67.74413105 -186.625 66.0625 C-189.97548573 61.31291033 -193.55220598 57.00890402 -197.53125 52.77734375 C-199 51 -199 51 -199 49 C-199.66 49 -200.32 49 -201 49 C-202.26171875 47.53125 -202.26171875 47.53125 -203.6875 45.5 C-206.45944086 41.65350429 -209.47071381 38.15086941 -212.6796875 34.6640625 C-214 33 -214 33 -214 31 C-214.66 31 -215.32 31 -216 31 C-217.29331861 29.38260845 -218.50956534 27.70326111 -219.6875 26 C-222.80536742 21.58254616 -226.0668997 17.51299385 -229.75 13.55859375 C-231 12 -231 12 -231 10 C-231.66 10 -232.32 10 -233 10 C-234.2890625 8.5390625 -234.2890625 8.5390625 -235.625 6.625 C-236.07101562 5.99851562 -236.51703125 5.37203125 -236.9765625 4.7265625 C-238 3 -238 3 -238 1 C-234.993182 2.33999498 -233.00237391 3.79845291 -230.75 6.1875 C-228.25984768 8.7574649 -225.71526802 11.16886874 -223 13.5 C-219.77043633 16.28239332 -216.76677347 19.21019429 -213.78125 22.25 C-211.91610326 24.08242487 -209.98072254 25.79353135 -208 27.5 C-204.80404653 30.25343684 -201.82769937 33.14677179 -198.87475586 36.15649414 C-197.06776312 37.93336641 -195.20655066 39.59436873 -193.28515625 41.24609375 C-189.06707221 44.91403503 -184.99307653 48.71661251 -180.9375 52.5625 C-179.43904786 53.97812478 -177.94034522 55.39348445 -176.44140625 56.80859375 C-175.32403076 57.86409424 -175.32403076 57.86409424 -174.18408203 58.94091797 C-170.92490014 62.01356944 -167.65141472 65.07074451 -164.375 68.125 C-163.4614978 68.9766272 -163.4614978 68.9766272 -162.52954102 69.84545898 C-161.30361704 70.98819236 -160.07762443 72.13085213 -158.8515625 73.2734375 C-156.9623107 75.03514487 -155.07467542 76.79856869 -153.1875 78.5625 C-147.32828737 84.0381406 -141.46186706 89.50512056 -135.5625 94.9375 C-129.35633982 100.65359941 -123.20257424 106.42472787 -117.05078125 112.19921875 C-108.06362305 120.63477961 -99.05090851 129.04195761 -89.98364258 137.39135742 C-84.95263284 142.03047959 -79.9648205 146.71513662 -74.97680664 151.40039062 C-68.68606478 157.30489241 -62.35084455 163.16026794 -56 169 C-53.69 167.35 -51.38 165.7 -49 164 C-50.45408485 159.4964915 -52.97962529 156.3656707 -56.0625 152.875 C-57.06713461 151.71286884 -58.07103129 150.55009937 -59.07421875 149.38671875 C-59.57228027 148.81228027 -60.0703418 148.2378418 -60.58349609 147.64599609 C-64.14590843 143.50642629 -67.55783996 139.23946549 -71 135 C-72.04423454 133.71481426 -73.08850794 132.4296601 -74.1328125 131.14453125 C-75.82006947 129.06790728 -77.50717649 126.99116231 -79.19384766 124.9140625 C-83.07736802 120.13224323 -86.97102623 115.35889445 -90.875 110.59375 C-93.16907425 107.79362996 -95.45940418 104.99046594 -97.75 102.1875 C-100.02627056 99.40320366 -102.30707839 96.62469132 -104.625 93.875 C-107.32728442 90.6038136 -109.89186922 87.2406964 -112.44921875 83.85546875 C-113.87851305 81.89428846 -113.87851305 81.89428846 -116 81 C-116.391875 80.319375 -116.78375 79.63875 -117.1875 78.9375 C-118.68984113 76.50267126 -120.10660256 74.66828331 -122 72.5625 C-125.75592646 68.36469984 -129.19573533 63.96108927 -132.64575195 59.51293945 C-136.49792166 54.57376808 -140.51489751 49.79399592 -144.64746094 45.0871582 C-148 41.21331774 -148 41.21331774 -148 39 C-148.66 39 -149.32 39 -150 39 C-151.19140625 37.63671875 -151.19140625 37.63671875 -152.5625 35.6875 C-156.48870153 30.27467848 -160.74596943 25.15661272 -165 20 C-166.60513268 18.04245838 -168.20932397 16.08414439 -169.8125 14.125 C-170.52019531 13.26132812 -171.22789062 12.39765625 -171.95703125 11.5078125 C-172.63121094 10.68023437 -173.30539062 9.85265625 -174 9 C-174.74636719 8.11054688 -175.49273438 7.22109375 -176.26171875 6.3046875 C-178 4 -178 4 -178 2 C-174.69376652 3.46280307 -172.34406102 5.30908383 -169.6875 7.75 C-168.81222656 8.55179688 -167.93695312 9.35359375 -167.03515625 10.1796875 C-166.02254627 11.11883163 -165.01089277 12.05900772 -164 13 C-163.14124268 13.79905762 -163.14124268 13.79905762 -162.26513672 14.61425781 C-159.7325391 16.97333434 -157.20223826 19.33483739 -154.67504883 21.69970703 C-149.79808375 26.26315731 -144.88623484 30.78607979 -139.95703125 35.29296875 C-135.16862506 39.67208212 -130.40702925 44.08033323 -125.64111328 48.48388672 C-122.92822414 50.99014104 -120.21405141 53.49500446 -117.5 56 C-116.41666043 56.99999324 -115.33332709 57.99999324 -114.25 59 C-113.445625 59.7425 -113.445625 59.7425 -112.625 60.5 C-55.75 113 -55.75 113 -54.12353516 114.50146484 C-53.04523452 115.49674444 -51.9667851 116.49186288 -50.88818359 117.48681641 C-48.10157908 120.05770555 -45.31798027 122.63173982 -42.5390625 125.2109375 C-37.11108241 130.24411342 -31.67751136 135.24673467 -26 140 C-23.26193128 138.72620281 -21.03402625 137.34756812 -18.75 135.375 C-17.8425 134.59125 -16.935 133.8075 -16 133 C-17.47252857 128.32101869 -20.22153243 125.14629544 -23.4375 121.5625 C-27.66377666 116.74826409 -31.7581153 111.87236105 -35.6875 106.8125 C-39.57674914 101.81223326 -43.52564997 96.87277374 -47.55078125 91.98046875 C-55.44021623 82.37976876 -63.25702266 72.71914325 -71 63 C-71.73089844 62.12730469 -72.46179688 61.25460938 -73.21484375 60.35546875 C-75 58 -75 58 -75 56 C-75.66 56 -76.32 56 -77 56 C-78.60140767 54.09586877 -80.08961082 52.18777853 -81.5625 50.1875 C-82.45538705 48.99616176 -83.34995312 47.80608029 -84.24609375 46.6171875 C-84.70097168 46.01358398 -85.15584961 45.40998047 -85.62451172 44.78808594 C-88.42711673 41.14479892 -91.41392671 37.6527475 -94.3828125 34.14453125 C-96 32 -96 32 -96 30 C-96.66 30 -97.32 30 -98 30 C-99.57972741 28.11647886 -101.04707103 26.22823151 -102.5 24.25 C-106.83743745 18.44692974 -111.40530617 12.92252554 -116.1640625 7.4609375 C-118 5 -118 5 -118 2 C-114.993182 3.33999498 -113.00237391 4.79845291 -110.75 7.1875 C-108.37176079 9.63598256 -105.96200541 11.96071053 -103.375 14.1875 C-99.7185621 17.34082338 -96.16513874 20.59270803 -92.625 23.875 C-88.77399311 27.44432001 -84.911225 30.99645969 -81 34.5 C-77.13337433 37.96489833 -73.30986214 41.47304568 -69.5 45 C-64.87649899 49.27977624 -60.21907612 53.51758655 -55.52734375 57.72265625 C-52.66917797 60.29809775 -49.83289739 62.89685764 -47 65.5 C-43.35072829 68.85293117 -39.68830402 72.18998357 -36 75.5 C-31.79315673 79.27537217 -27.62325147 83.08980448 -23.4609375 86.9140625 C-19.52899682 90.52338241 -15.56976618 94.10041882 -11.5859375 97.65234375 C-9.64656674 99.41301116 -7.7424502 101.19252048 -5.8515625 103.00390625 C-5.0471875 103.76574219 -5.0471875 103.76574219 -4.2265625 104.54296875 C-3.17974913 105.53616485 -2.14030477 106.53720151 -1.109375 107.546875 C1.92496812 110.40899865 2.63203655 111 7 111 C8.89105291 109.55545155 8.89105291 109.55545155 10.5625 107.625 C12.6823005 105.33051661 14.36434742 103.75710172 17 102 C15.53818113 97.43709718 12.93519336 94.27893142 9.8125 90.75 C8.81114826 89.59361706 7.81114835 88.43606214 6.8125 87.27734375 C6.08546875 86.43598877 6.08546875 86.43598877 5.34375 85.57763672 C3.0306866 82.86197254 0.86629773 80.0383514 -1.296875 77.203125 C-3.95535821 73.76416965 -6.73059923 70.41963396 -9.49609375 67.06640625 C-11 65 -11 65 -11 63 C-11.66 63 -12.32 63 -13 63 C-14.3337216 61.31886306 -15.59271116 59.57804522 -16.8125 57.8125 C-20.02474117 53.22352814 -20.02474117 53.22352814 -23.8125 49.125 C-26 47 -26 47 -27.33203125 44.76171875 C-29.27943977 41.53732104 -31.53301792 38.62780174 -33.875 35.6875 C-34.34824707 35.0886499 -34.82149414 34.4897998 -35.30908203 33.87280273 C-39.64758898 28.40070409 -44.05649625 22.98521147 -48.49560547 17.59448242 C-58 5.99304876 -58 5.99304876 -58 3 C-54.26077871 4.5813062 -51.70350263 6.93230398 -48.75 9.6875 C-45.51184489 12.68479616 -42.27071448 15.67054609 -38.9375 18.5625 C-35.92926472 21.17701942 -32.95869751 23.82951656 -30 26.5 C-26.37976277 29.76704335 -22.73016435 32.99520776 -19.05078125 36.1953125 C-16.73911203 38.22958141 -14.4646857 40.3022231 -12.1875 42.375 C-8.81059018 45.42858867 -5.36782868 48.34429205 -1.8125 51.1875 C4.25033046 56.08771382 9.87623206 61.41761155 15.546875 66.76171875 C19.27948539 70.27635916 23.10894039 73.66237337 27 77 C28.50112758 78.31121022 30.00113091 79.62370866 31.5 80.9375 C32.1703125 81.52402344 32.840625 82.11054687 33.53125 82.71484375 C34.0159375 83.13894531 34.500625 83.56304687 35 84 C40.03163018 79.70214922 45.02718443 75.36574458 50 71 C48.63377254 67.03512341 46.8511212 64.35798894 44.125 61.1875 C40.41839452 56.76196627 36.88166643 52.25730845 33.4375 47.625 C29.32926441 42.10453752 25.18822824 36.61177142 21.00805664 31.14550781 C17.66295394 26.77056628 14.32965016 22.38670916 11 18 C10.41105957 17.2251123 9.82211914 16.45022461 9.21533203 15.65185547 C7.63520131 13.56567882 6.06559346 11.47209798 4.5 9.375 C4.037146 8.7658374 3.57429199 8.1566748 3.09741211 7.52905273 C0 3.3458876 0 3.3458876 0 0 Z " fill="#FFFFFF" transform="translate(954,7)"/>
<path d="M0 0 C0.66 0.33 1.32 0.66 2 1 C2.04686878 19.64657992 2.08206139 38.29314776 2.10362434 56.93977451 C2.11390568 65.59911133 2.12790541 74.25841139 2.15087891 82.91772461 C2.17090955 90.47144804 2.18373923 98.02514483 2.18817699 105.57889408 C2.1907681 109.57284308 2.19679161 113.56671592 2.21146011 117.56064034 C2.22519753 121.33217996 2.2291906 125.10361321 2.22621536 128.87517548 C2.22701418 130.89406707 2.23769016 132.91294751 2.24884033 134.93180847 C2.20489273 154.76376593 -0.77423588 174.6368412 -15.0625 189.5625 C-21.00633304 195.15132595 -27.48600149 200.10104244 -34 205 C-34.90234375 205.68578125 -35.8046875 206.3715625 -36.734375 207.078125 C-45.40072321 213.42608707 -54.39888467 218.13130812 -65.30879211 218.12025452 C-66.88413475 218.12231651 -66.88413475 218.12231651 -68.49130249 218.12442017 C-69.63281769 218.12082489 -70.77433289 218.11722961 -71.95043945 218.11352539 C-73.16061234 218.11367142 -74.37078522 218.11381744 -75.61763 218.1139679 C-78.92717032 218.11339145 -82.23664793 218.10838317 -85.54617715 218.10139394 C-89.00817444 218.09513404 -92.47017261 218.09455451 -95.93217468 218.09336853 C-102.48397015 218.09026299 -109.03574888 218.08206007 -115.58753699 218.07201904 C-123.04821 218.06083378 -130.50888382 218.05534137 -137.96956313 218.05032361 C-153.31305176 218.03987681 -168.65652372 218.02229242 -184 218 C-184.06375824 218.7577623 -184.12751648 219.5155246 -184.19320679 220.29624939 C-184.2794632 221.2889534 -184.3657196 222.28165741 -184.45458984 223.30444336 C-184.53897308 224.28908066 -184.62335632 225.27371796 -184.71029663 226.28819275 C-186.34740114 241.61252915 -197.91383132 253.38494707 -209.26171875 262.72265625 C-212.78508405 265.55690595 -216.37809186 268.2933001 -220 271 C-220.64179199 271.48130371 -221.28358398 271.96260742 -221.94482422 272.45849609 C-223.85092604 273.87963313 -225.76642091 275.2866922 -227.6875 276.6875 C-228.27563477 277.12191406 -228.86376953 277.55632812 -229.46972656 278.00390625 C-233.64810241 281 -233.64810241 281 -237 281 C-235.46755831 276.71905 -232.23037298 274.63019818 -228.6875 272.0625 C-217.21679647 263.65757907 -209.34180342 253.39059856 -207 239 C-206.30749233 232.02055821 -206.11532073 225.00971079 -206 218 C-207.67618408 218.02356567 -207.67618408 218.02356567 -209.38623047 218.04760742 C-213.6244352 218.10286137 -217.86260992 218.13668839 -222.10107422 218.16479492 C-223.91818637 218.17966831 -225.73526406 218.19997328 -227.55224609 218.22631836 C-252.75548716 218.58198114 -275.15892186 214.94461418 -294.3125 197.25 C-308.83649201 181.68420266 -312.81917712 161.93925578 -312.140625 141.27734375 C-311.5938266 132.42224741 -309.26867131 123.77999771 -305 116 C-304.51789063 115.11699219 -304.03578125 114.23398438 -303.5390625 113.32421875 C-297.74134811 103.48443588 -290.28677709 97.12471055 -280.41796875 91.5859375 C-277.77680182 89.85360507 -275.88970492 87.94268408 -273.75 85.625 C-261.41490146 72.7469834 -245.13925613 69.44846516 -228 67 C-213.48 67 -198.96 67 -184 67 C-184 110.89 -184 154.78 -184 200 C-161.23 199.67 -138.46 199.34 -115 199 C-115.14824219 190.56050781 -115.29648437 182.12101562 -115.44921875 173.42578125 C-115.50728787 167.3787645 -115.55329486 161.33259108 -115.58198452 155.28546238 C-115.62069403 147.46287535 -115.68724781 139.64388499 -115.8605957 131.82299805 C-115.99782816 125.62739089 -116.06687905 119.43525247 -116.05671436 113.2380721 C-116.05364968 109.95928272 -116.09303797 106.69027025 -116.194067 103.41280556 C-116.776762 83.48879648 -116.776762 83.48879648 -112.0836525 77.59225082 C-106.26745361 72.30192887 -99.445639 68.48187967 -92 66 C-92 109.89 -92 153.78 -92 199 C-72.53 198.67 -53.06 198.34 -33 198 C-21.6000447 179.0000745 -20.67592781 162.19749723 -20.83984375 140.73828125 C-20.84729787 138.79631897 -20.85376385 136.85435269 -20.85931396 134.91238403 C-20.87209402 130.82069476 -20.890153 126.7290739 -20.91146851 122.63742065 C-20.94166344 116.27066545 -20.93914865 109.90415929 -20.9309082 103.53735352 C-20.87891359 78.47878469 -20.87891359 78.47878469 -21.34092712 53.42616272 C-21.48037179 48.51741827 -21.5554618 43.60908334 -21.61746216 38.69882202 C-21.66354183 36.5531158 -21.74358774 34.40782502 -21.86032104 32.26480103 C-22.5630429 19.27505071 -22.5630429 19.27505071 -20 14 C-15.22176691 8.71506011 -9.10750846 5.20911353 -2.83088684 1.96669006 C-1.03556804 1.13395059 -1.03556804 1.13395059 0 0 Z M-268 89 C-269.46663086 89.40400024 -269.46663086 89.40400024 -270.96289062 89.81616211 C-275.99117802 91.29532633 -278.5737318 93.17223786 -281.375 97.625 C-282.29465244 99.3941619 -283.17039416 101.18686774 -284 103 C-284.38929688 103.84433594 -284.77859375 104.68867187 -285.1796875 105.55859375 C-292.831081 123.45838657 -291.82508289 143.42005881 -284.6796875 161.3046875 C-277.00812128 177.77969038 -264.49017534 188.00697851 -248 195 C-240.54796846 197.53983098 -233.05699062 199.14009135 -225.1640625 199.09765625 C-223.56884766 199.09282227 -223.56884766 199.09282227 -221.94140625 199.08789062 C-220.84699219 199.07951172 -219.75257813 199.07113281 -218.625 199.0625 C-217.50738281 199.05798828 -216.38976562 199.05347656 -215.23828125 199.04882812 C-212.49212908 199.03709243 -209.74610226 199.01979876 -207 199 C-206.20558867 184.30365483 -205.86102794 169.6615303 -205.90234375 154.9453125 C-205.90421632 152.93651363 -205.90563624 150.92771429 -205.90663147 148.91891479 C-205.91039072 143.7143419 -205.92016189 138.50979837 -205.93133545 133.30523682 C-205.94169409 127.96130775 -205.94615956 122.61737378 -205.95117188 117.2734375 C-205.9617924 106.84894566 -205.97878603 96.4244753 -206 86 C-212.57951259 85.92313735 -219.15890694 85.87106394 -225.73876953 85.83520508 C-227.97123542 85.82023613 -230.2036725 85.79985371 -232.43603516 85.77368164 C-244.66742462 85.63400388 -256.17137493 85.51775112 -268 89 Z " fill="#FFFFFF" transform="translate(611,9)"/>
<path d="M0 0 C0.00879936 1.11181641 0.00879936 1.11181641 0.01777649 2.24609375 C0.07619848 9.30506327 0.14854707 16.36373008 0.23571491 23.4223938 C0.28003689 27.049476 0.3193711 30.67645566 0.34643555 34.30371094 C0.56668973 62.92776828 2.26465632 87.79756234 22.82421875 109.9140625 C40.5271029 126.88594784 61.7133307 131.67743441 85.32421875 131.42578125 C87.12782934 131.42084212 88.93144512 131.41755319 90.73506165 131.41581726 C94.47906385 131.40824836 98.22267394 131.38789611 101.96655273 131.35668945 C106.75904341 131.31680245 111.55128274 131.2990206 116.34392071 131.28938007 C120.94155367 131.27941343 125.53912628 131.25957123 130.13671875 131.23828125 C131.44233544 131.23318763 131.44233544 131.23318763 132.77432823 131.2279911 C135.23593712 131.21639493 137.69738992 131.1978781 140.15893555 131.17700195 C140.88258301 131.17431305 141.60623047 131.17162415 142.35180664 131.16885376 C146.00153901 131.13009095 149.49124099 131.06446711 153 130 C154.24833276 127.70057648 154.24833276 127.70057648 155 125 C155.80421655 123.51631337 156.61704719 122.03727031 157.4375 120.5625 C163.29377376 108.77039475 163.41503318 96.45301546 163.2578125 83.61328125 C163.24964696 81.97813071 163.2429945 80.342972 163.23776245 78.70780945 C163.22081552 74.44261926 163.18667355 70.17775896 163.14770508 65.91271973 C163.08803588 59.07931296 163.05433238 52.24574168 163.02193832 45.41216087 C163.00816474 43.04872316 162.98655341 40.68546242 162.96365356 38.32209778 C162.79071284 16.61238288 162.79071284 16.61238288 165.93359375 12.421875 C167.17302734 11.59429687 167.17302734 11.59429687 168.4375 10.75 C169.78134766 9.81414062 169.78134766 9.81414062 171.15234375 8.859375 C172.09207031 8.24578125 173.03179687 7.6321875 174 7 C175.83377317 5.66727165 177.66712826 4.33396779 179.5 3 C183.73214286 0 183.73214286 0 186 0 C186.06990429 10.69313661 186.12301471 21.38621771 186.15543652 32.07953739 C186.17100737 37.04635323 186.19208635 42.01301127 186.22631836 46.97973633 C186.25922104 51.7843573 186.2769173 56.58882772 186.28463173 61.39355278 C186.29012034 63.21492313 186.3008359 65.03628644 186.31719017 66.85759163 C186.48415026 86.2448692 184.56487801 104.96648362 171 120 C170.30390625 120.77730469 169.6078125 121.55460937 168.890625 122.35546875 C156.13008484 135.82254889 138.35646604 150.72289779 119.10427666 151.35212612 C115.22005664 151.41644481 111.33773691 151.4148553 107.453125 151.3984375 C105.75217566 151.40046346 104.05122717 151.40337922 102.35028076 151.40713501 C98.79658688 151.41153862 95.24312039 151.40519423 91.68945312 151.39111328 C87.17329275 151.37407499 82.65766953 151.383841 78.14152908 151.40183067 C74.63067719 151.41276681 71.1199487 151.40917671 67.60909271 151.4014473 C65.94601119 151.39946958 64.28291784 151.40181739 62.61985016 151.40888596 C37.96808676 151.49065508 17.86907642 144.54092977 0 127 C-0.69996094 126.32453125 -1.39992188 125.6490625 -2.12109375 124.953125 C-21.64644 104.70461778 -22.48198392 77.0303957 -22.70019531 50.54223633 C-22.72703604 47.6288721 -22.78309319 44.71825724 -22.86425781 41.8059082 C-22.96323393 38.2503015 -23.01245886 34.69720819 -23.02664948 31.14028358 C-23.04640902 29.15234905 -23.11475784 27.16508571 -23.18426514 25.17826843 C-23.14293851 16.34214629 -23.14293851 16.34214629 -19.81152344 12.43008423 C-17.29385026 10.39692914 -14.76802985 8.67011998 -12 7 C-10.9790625 6.236875 -9.958125 5.47375 -8.90625 4.6875 C-8.1121875 4.130625 -7.318125 3.57375 -6.5 3 C-5.6853125 2.4225 -4.870625 1.845 -4.03125 1.25 C-2 0 -2 0 0 0 Z " fill="#FFFFFF" transform="translate(28,76)"/>
<path d="M0 0 C0.99 0 1.98 0 3 0 C4.2709289 3.23824375 5.5417367 6.47653501 6.8125 9.71484375 C7.21357971 10.73691422 7.61465942 11.75898468 8.02789307 12.81202698 C10.26040545 18.50179943 12.49188987 24.19197249 14.72167969 29.8828125 C15.17601379 31.04233429 15.6303479 32.20185608 16.09844971 33.39651489 C17.02714693 35.76668255 17.9558169 38.13686088 18.88446045 40.50704956 C21.49017043 47.15541258 24.10196453 53.80132433 26.72155762 60.44422913 C28.21709633 64.2384149 29.70878874 68.03410525 31.19970703 71.83010864 C31.8987424 73.60708758 32.59958347 75.38335727 33.30224609 77.15890503 C34.27382242 79.61456651 35.23919557 82.07257887 36.203125 84.53125 C36.63289642 85.61050499 36.63289642 85.61050499 37.0713501 86.71156311 C38.2098948 89.63161512 39 91.83527289 39 95 C39.66 95 40.32 95 41 95 C41.16634949 94.39173874 41.33269897 93.78347748 41.50408936 93.15678406 C43.28960357 86.89317465 45.612648 81.11649357 48.328125 75.20703125 C59.41500819 53.27336154 59.41500819 53.27336154 58.96972656 29.8972168 C57.25274561 26.36227354 55.41968231 23.04009087 53.09594727 19.8671875 C52 18 52 18 52 14 C54.03046527 12.14493364 55.96246303 10.58416871 58.1875 9 C59.34791407 8.14618363 60.50807381 7.29202147 61.66796875 6.4375 C62.23306152 6.03015625 62.7981543 5.6228125 63.38037109 5.203125 C64.8786236 4.09016324 66.3123413 2.89171747 67.73828125 1.6875 C70 0 70 0 73 0 C73.37060547 0.96671631 73.74121094 1.93343262 74.12304688 2.92944336 C82.22742893 24.06301691 90.38571194 45.17458027 98.63085938 66.25366211 C98.95008362 67.06997604 99.26930786 67.88628998 99.59820557 68.7273407 C100.21548699 70.30553287 100.83311051 71.88359128 101.45111084 73.46150208 C102.82667119 76.97773002 104.1935582 80.49665451 105.53417969 84.02636719 C105.98438477 85.21133789 106.43458984 86.39630859 106.8984375 87.6171875 C107.28435059 88.64183105 107.67026367 89.66647461 108.06787109 90.72216797 C108.79921602 92.92809155 108.79921602 92.92809155 110 94 C111.63341151 89.80356354 113.26634471 85.60694125 114.89901733 81.41021729 C115.50827929 79.84436948 116.11767476 78.27857362 116.72720337 76.71282959 C120.41718501 67.23399754 124.09846299 57.75189641 127.76087952 48.26237488 C129.47768166 43.81419075 131.19654463 39.36680389 132.91537476 34.91940308 C133.76150885 32.72818269 134.60658638 30.53655402 135.45059204 28.34451294 C136.6453956 25.24166367 137.84383056 22.14023868 139.04296875 19.0390625 C139.39869965 18.11235245 139.75443054 17.1856424 140.12094116 16.23085022 C141.8801421 11.69151606 143.7264161 7.30611739 146 3 C146.66 3 147.32 3 148 3 C149.6875 4.6875 149.6875 4.6875 151 7 C150.53877292 10.54187147 149.45647536 13.70345574 148.16845703 17.02246094 C147.78874756 18.00679611 147.40903809 18.99113129 147.01782227 20.0052948 C146.39411743 21.6036895 146.39411743 21.6036895 145.7578125 23.234375 C145.10389526 24.92443413 145.10389526 24.92443413 144.43676758 26.64863586 C143.24967868 29.71439753 142.05902117 32.77874318 140.86673737 35.84248734 C139.62682484 39.03114812 138.39151822 42.22159205 137.15576172 45.41186523 C135.12065698 50.66405581 133.08285572 55.91519236 131.04296875 61.16552734 C128.12841167 68.66724237 125.21972525 76.17122136 122.3125 83.67578125 C117.87897983 95.1187334 113.44108108 106.55998032 109 118 C98.10083355 119.6064531 98.10083355 119.6064531 93 118 C91.36253769 115.56832307 90.45072476 113.77113412 89.45703125 111.08203125 C89.16617142 110.3648291 88.87531158 109.64762695 88.57563782 108.90869141 C87.62767105 106.55304298 86.72039033 104.1838487 85.8125 101.8125 C85.16587609 100.18539545 84.51659993 98.55934256 83.86474609 96.93432617 C82.53524615 93.60669572 81.22211559 90.27333464 79.92333984 86.93359375 C77.83293163 81.55889769 75.6931842 76.20463708 73.54530334 70.85270691 C72.21950904 67.54866885 70.89806078 64.24320622 69.59301758 60.9309082 C69.1317749 59.76390381 68.67053223 58.59689941 68.1953125 57.39453125 C67.79328613 56.37206299 67.39125977 55.34959473 66.97705078 54.29614258 C66.20179488 52.07719924 66.20179488 52.07719924 65 51 C64.56768066 52.14138428 64.13536133 53.28276855 63.68994141 54.45874023 C55.63631008 75.71079252 47.58232074 96.9543826 39 118 C33.42289352 119.06795656 28.60563042 118.82622671 23 118 C22.66081543 117.16194824 22.32163086 116.32389648 21.97216797 115.46044922 C12.486525 92.02956539 2.9608312 68.6151388 -6.58447266 45.20849609 C-7.045952 44.07654312 -7.50743134 42.94459015 -7.9828949 41.77833557 C-8.84691679 39.65902714 -9.71120471 37.53982714 -10.57582092 35.42076111 C-11.3500375 33.52158235 -12.12202729 31.62149382 -12.89144897 29.72036743 C-13.64252105 27.87724794 -14.40546485 26.03892962 -15.17910767 24.20516968 C-15.54644012 23.32301788 -15.91377258 22.44086609 -16.29223633 21.53198242 C-16.62129471 20.75392746 -16.95035309 19.9758725 -17.28938293 19.17424011 C-18 17 -18 17 -18 13 C-16.45532227 11.46020508 -16.45532227 11.46020508 -14.31640625 10.01953125 C-13.55392578 9.49552734 -12.79144531 8.97152344 -12.00585938 8.43164062 C-11.19955078 7.89732422 -10.39324219 7.36300781 -9.5625 6.8125 C-7.98022065 5.73604168 -6.39817683 4.65923704 -4.81640625 3.58203125 C-4.10943604 3.10999268 -3.40246582 2.6379541 -2.67407227 2.15161133 C-1.04527352 1.10587867 -1.04527352 1.10587867 0 0 Z " fill="#FFFFFF" transform="translate(211,317)"/>
<path d="M0 0 C0.33 5.94 0.66 11.88 1 18 C2.4025 16.63875 3.805 15.2775 5.25 13.875 C16.9396881 3.38890461 30.68916054 -0.80597536 46.19140625 -0.28515625 C55.97646369 0.44746856 64.46690055 3.98045683 71.25 11.1875 C77.25930242 18.67047332 79.00186342 27.71309819 79.41503906 37.0625 C79.44570465 37.75435898 79.47637024 38.44621796 79.50796509 39.15904236 C79.77605028 45.53416478 79.93849136 51.91181574 80.06656265 58.29115295 C80.15433822 62.56640853 80.27798579 66.83385302 80.48828125 71.10498047 C81.81255521 98.68293387 81.81255521 98.68293387 77.15112305 105.83789062 C72.22737138 110.78103333 66.49401756 113.63904216 60 116 C58.3320218 116.66337843 56.66500797 117.32920146 55 118 C54.99413376 116.97206833 54.98826752 115.94413666 54.98222351 114.88505554 C54.92481742 105.16096023 54.85196345 95.43708472 54.76428509 85.71321392 C54.71970542 80.71499455 54.68042241 75.71685437 54.65356445 70.71850586 C54.62740717 65.88781735 54.58691824 61.05743561 54.53681374 56.22693825 C54.52022861 54.39116059 54.50866264 52.55532998 54.50238609 50.71948814 C54.86622754 34.3111074 54.86622754 34.3111074 48.75 19.5 C42.23614327 13.57831206 36.39899787 13.45246455 27.7890625 13.65625 C18.10957803 14.5343888 11.13867615 18.59006371 4 25 C3.47455188 25.45181294 2.94910376 25.90362589 2.40773296 26.36913013 C-0.05835464 29.22611229 0.56139815 32.99641077 0.56762695 36.60229492 C0.5574353 37.48055435 0.54724365 38.35881378 0.53674316 39.26368713 C0.5065264 42.16934516 0.49733399 45.07467401 0.48828125 47.98046875 C0.471441 49.99401452 0.45329165 52.00754973 0.43388367 54.02107239 C0.38630656 59.32287295 0.35654707 64.62463072 0.33044434 69.92657471 C0.3006777 75.33590141 0.25413403 80.74508057 0.20898438 86.15429688 C0.12286353 96.7694542 0.05555732 107.38464181 0 118 C-3.09990551 118.64368968 -5.96830741 119.12750464 -9.13671875 119.1328125 C-10.24950195 119.13474609 -10.24950195 119.13474609 -11.38476562 119.13671875 C-12.14466797 119.13285156 -12.90457031 119.12898438 -13.6875 119.125 C-14.45900391 119.12886719 -15.23050781 119.13273437 -16.02539062 119.13671875 C-21.74654908 119.12672546 -21.74654908 119.12672546 -24 118 C-24.23193109 104.96978529 -24.40949928 91.94006327 -24.51812172 78.90820312 C-24.5702623 72.85651633 -24.64095408 66.80624386 -24.75439453 60.75537109 C-24.86323325 54.91324015 -24.92287974 49.07246732 -24.94877243 43.22940063 C-24.96721802 41.00292581 -25.00324089 38.77652352 -25.05730057 36.55062866 C-25.46423387 19.09748794 -25.46423387 19.09748794 -21.84028625 13.90625 C-19.30108159 11.8441431 -16.93752849 10.4139793 -14 9 C-12.7217393 8.10654516 -11.45783696 7.19190225 -10.21484375 6.25 C-8.59255859 5.13625 -8.59255859 5.13625 -6.9375 4 C-6.37095703 3.60683594 -5.80441406 3.21367187 -5.22070312 2.80859375 C-1.13503103 0 -1.13503103 0 0 0 Z " fill="#FFFFFF" transform="translate(534,317)"/>
<path d="M0 0 C0.74121094 0.2784375 1.48242188 0.556875 2.24609375 0.84375 C9.73568692 4.1284109 14.86408505 9.51815725 18.0960083 16.97325134 C20.1060949 23.7034314 19.93069726 30.90877922 20.09375 37.88671875 C20.11504471 38.74359598 20.13633942 39.60047321 20.15827942 40.48331642 C20.26468481 45.0185975 20.34234329 49.55345832 20.40039062 54.08959961 C20.45373668 57.81658564 20.56501741 61.53479136 20.72851562 65.25854492 C22.01822342 95.27605524 22.01822342 95.27605524 17.02392578 103.09283447 C10.87480856 109.41639801 3.4610124 112.8847469 -5 115 C-5.495 107.575 -5.495 107.575 -6 100 C-7.0725 101.03125 -8.145 102.0625 -9.25 103.125 C-18.85816767 111.49613726 -31.17629098 116.49781653 -43.9375 115.9375 C-56.37840984 114.64440762 -66.01640789 110.77090686 -74.375 101.3125 C-78.66874701 92.55986187 -80.11686794 83.56462895 -78 74 C-75.81278807 67.96834249 -72.95826305 63.15110395 -68 59 C-67.43667969 58.52046875 -66.87335938 58.0409375 -66.29296875 57.546875 C-49.68011466 44.14832058 -25.41682659 41.5818994 -5 38 C-5.0524415 34.66544392 -5.14764024 31.33336769 -5.25 28 C-5.26417969 27.06542969 -5.27835937 26.13085938 -5.29296875 25.16796875 C-5.50755389 19.03083366 -6.41133897 14.09836807 -10 9 C-17.08124581 3.5120345 -26.20564735 4.41408018 -34.67578125 5.44921875 C-37.79172249 5.92938019 -40.89757167 6.43956133 -44 7 C-44.39316406 8.2478125 -44.78632813 9.495625 -45.19140625 10.78125 C-47.10417311 16.50721016 -49.4732408 21.99294825 -51.9375 27.5 C-52.36740234 28.5003125 -52.79730469 29.500625 -53.24023438 30.53125 C-53.66498047 31.48 -54.08972656 32.42875 -54.52734375 33.40625 C-54.90624756 34.26541016 -55.28515137 35.12457031 -55.67553711 36.00976562 C-57 38 -57 38 -59.15454102 38.78710938 C-59.76354248 38.85736328 -60.37254395 38.92761719 -61 39 C-63.90320329 32.21729496 -66.67501334 25.39001909 -69.3125 18.5 C-69.57885254 17.81808594 -69.84520508 17.13617188 -70.11962891 16.43359375 C-71.40769396 13.03032798 -72 10.69460441 -72 7 C-64.83337539 3.95885843 -57.75873975 1.5208349 -50.1875 -0.25 C-49.495354 -0.41274414 -48.80320801 -0.57548828 -48.09008789 -0.74316406 C-32.9874881 -4.13652101 -14.67736167 -5.53682587 0 0 Z M-18.3984375 47.515625 C-19.78340718 47.91721472 -21.17011255 48.31287311 -22.55859375 48.70214844 C-35.14523185 52.23534579 -44.83799348 56.45598921 -51.8125 68 C-54.53593056 75.04335491 -54.15539107 84.11733903 -51.375 91.0625 C-48.22004506 97.00837662 -43.42408808 100.41635166 -37.125 102.4921875 C-29.06526836 104.41822631 -22.36797436 102.41138253 -15 99 C-14.10611572 98.62037109 -13.21223145 98.24074219 -12.29125977 97.84960938 C-8.8866414 95.8776227 -7.16121718 94.33019181 -5 91 C-3.27328914 83.19634792 -4.06579455 74.92382721 -4.375 67 C-4.42519677 64.7722348 -4.47081782 62.5443615 -4.51171875 60.31640625 C-4.62155317 54.8752349 -4.7885325 49.43811935 -5 44 C-9.33127782 44 -14.20910962 46.29177641 -18.3984375 47.515625 Z " fill="#FFFFFF" transform="translate(455,320)"/>
<path d="M0 0 C3.60272629 1.3867958 6.47128045 2.87870522 9.57421875 5.1875 C10.40630859 5.80367188 11.23839844 6.41984375 12.09570312 7.0546875 C12.95099609 7.69664062 13.80628906 8.33859375 14.6875 9 C15.9878418 9.96292969 15.9878418 9.96292969 17.31445312 10.9453125 C23.68422302 15.68422302 23.68422302 15.68422302 26 18 C26.24609566 20.49499702 26.24609566 20.49499702 26.24050903 23.70730591 C26.24325836 24.92169342 26.24600769 26.13608093 26.24884033 27.38726807 C26.2417616 28.74011328 26.23449198 30.09295751 26.22705078 31.44580078 C26.22648688 32.86479687 26.22680282 34.28379355 26.22793579 35.70278931 C26.22851111 39.56210272 26.21672789 43.42129256 26.20278788 47.28057718 C26.19031033 51.31113978 26.18911237 55.34170501 26.18673706 59.37228394 C26.18051352 67.00792729 26.16409091 74.64351358 26.14403808 82.27913177 C26.11753295 92.59489847 26.1067135 102.91068071 26.09503365 113.22647285 C26.0762109 129.48435801 26.03637109 145.74212271 26 162 C55.04 162 84.08 162 114 162 C114 164.64 114 167.28 114 170 C99.28390435 170.02332994 84.56781115 170.04097964 69.85170078 170.05181217 C63.01921026 170.05697493 56.18673121 170.06401723 49.35424805 170.07543945 C42.76664695 170.08644707 36.17905469 170.09227623 29.59144402 170.09487724 C27.07191721 170.096732 24.55239109 170.10035357 22.03286934 170.10573006 C18.51742235 170.11293676 15.00202539 170.1139911 11.48657227 170.11352539 C10.43353409 170.11712067 9.38049591 170.12071594 8.29554749 170.12442017 C7.34337341 170.1230455 6.39119934 170.12167084 5.41017151 170.12025452 C4.16160291 170.12163721 4.16160291 170.12163721 2.88781071 170.12304783 C1 170 1 170 0 169 C-0.09696917 166.82307389 -0.12186746 164.64293607 -0.12025452 162.46385193 C-0.12153615 161.42738977 -0.12153615 161.42738977 -0.12284368 160.36998898 C-0.12450047 158.0375678 -0.1189739 155.70521737 -0.11352539 153.37280273 C-0.11324354 151.70765179 -0.11340122 150.04250072 -0.1139679 148.37734985 C-0.11425594 143.84241894 -0.10835816 139.30751424 -0.10139394 134.77258945 C-0.09516148 130.03866631 -0.09455669 125.30474264 -0.09336853 120.57081604 C-0.09025489 111.599979 -0.08204108 102.62915408 -0.07201904 93.65832239 C-0.0608589 83.44809608 -0.0553477 73.2378692 -0.05032361 63.02763832 C-0.03985849 42.01841877 -0.02225843 21.00921015 0 0 Z " fill="#FFFFFF" transform="translate(6,266)"/>
<path d="M0 0 C0.66 0.33 1.32 0.66 2 1 C2.04684192 22.12387293 2.08204837 43.24773722 2.10362434 64.37165165 C2.11391132 74.1811351 2.12792202 83.99058617 2.15087891 93.80004883 C2.17089209 102.35578876 2.18373515 110.91150523 2.18817699 119.46726793 C2.19077101 123.9921808 2.19681359 128.51702656 2.21146011 133.0419178 C2.22516968 137.31248588 2.22919601 141.58296006 2.22621536 145.85354805 C2.22675961 147.40982068 2.23065659 148.9660969 2.23841095 150.52235031 C2.33003219 169.88160992 0.74340717 189.06769417 -12.890625 204.08203125 C-20.57293137 211.52248724 -31.10602687 217.78212054 -42 218 C-42 217.01 -42 216.02 -42 215 C-41.14728516 214.5978125 -41.14728516 214.5978125 -40.27734375 214.1875 C-31.10496462 209.53240275 -26.17227433 203.77951834 -22.7265625 194.1015625 C-20.97548594 186.62653676 -20.85526442 178.96280952 -20.90234375 171.31762695 C-20.90442793 169.94392378 -20.90442793 169.94392378 -20.90655422 168.54246902 C-20.91214981 165.52437446 -20.92480363 162.5063536 -20.9375 159.48828125 C-20.94298541 157.34065372 -20.94794312 155.19302479 -20.95240784 153.0453949 C-20.95957931 149.65685919 -20.96721228 146.26832977 -20.97676182 142.87979984 C-20.9994384 134.62389122 -20.99792472 126.36822744 -20.98413086 118.11230469 C-20.97723645 113.38867243 -20.97080401 108.66503978 -20.96484375 103.94140625 C-20.96332747 102.77367046 -20.96181118 101.60593468 -20.96024895 100.40281296 C-20.94732893 87.33006404 -21.00547591 74.2661128 -21.28482056 61.19621277 C-21.39447864 56.03114509 -21.451955 50.86604966 -21.48966408 45.69999027 C-21.51710357 42.42803895 -21.58484766 39.16479618 -21.7097168 35.89492798 C-22.41631871 17.13529457 -22.41631871 17.13529457 -18.30340576 11.79858398 C-14.28908444 8.02340723 -9.83333934 5.29085573 -4.87632751 2.91998291 C-2.75023466 1.92864435 -2.75023466 1.92864435 0 0 Z " fill="#FFFFFF" transform="translate(272,9)"/>
<path d="M0 0 C3.6917488 1.47669952 6.0325185 2.53913487 9.13671875 4.75 C9.87857422 5.2759375 10.62042969 5.801875 11.38476562 6.34375 C12.14466797 6.8903125 12.90457031 7.436875 13.6875 8 C14.45900391 8.5465625 15.23050781 9.093125 16.02539062 9.65625 C21.70117781 13.70117781 21.70117781 13.70117781 24 16 C24.27190793 18.70939129 24.41917598 21.32248027 24.48095703 24.03881836 C24.51994614 25.28559357 24.51994614 25.28559357 24.5597229 26.55755615 C24.81378028 35.27512563 24.92678332 43.99660024 25.02978516 52.71704102 C25.08317451 56.85009112 25.18042993 60.97849323 25.31689453 65.10961914 C25.48148489 70.10515667 25.56624615 75.09629139 25.59591293 80.09439278 C25.6203089 81.99217731 25.67215628 83.88982782 25.75281143 85.78605461 C26.33512581 100.20590918 26.33512581 100.20590918 22.44680023 104.85847855 C18.65487184 108.20927302 14.4545055 110.67074146 9.96099472 112.96150398 C8.07505745 113.96025136 6.35879006 115.06408599 4.60794067 116.28111267 C2 118 2 118 0 118 C0 79.06 0 40.12 0 0 Z " fill="#FFFFFF" transform="translate(141,317)"/>
<path d="M0 0 C3.43484491 1.02599263 6.38731074 2.75177726 9.5 4.5 C16.73383298 8.13851002 25.83055963 10.47011869 33.80078125 7.98046875 C36.22224429 6.90091773 38.51108497 5.62888244 40.83081055 4.34838867 C49.65996755 -0.44163024 57.34794807 -1.94444595 67.30078125 0.96484375 C73.13010455 3.23704573 78.11309975 6.11269298 83 10 C82.62200936 12.51926022 82.27273269 13.73937577 80.40527344 15.52392578 C79.73012695 15.9929834 79.05498047 16.46204102 78.359375 16.9453125 C77.24755859 17.72455078 77.24755859 17.72455078 76.11328125 18.51953125 C75.33339844 19.04933594 74.55351563 19.57914062 73.75 20.125 C72.98558594 20.66253906 72.22117187 21.20007813 71.43359375 21.75390625 C63.46492658 27.27279319 63.46492658 27.27279319 60 28 C57.89453125 26.98828125 57.89453125 26.98828125 55.8125 25.3125 C48.72455936 20.17580007 40.75900822 17.83744073 32 19 C26.57407076 20.35124493 21.85609012 23.07821989 17.078125 25.9140625 C11.03149686 29.07376668 3.65801711 28.87812482 -2.84765625 27.31640625 C-9.23522299 25.15128166 -14.5952277 22.00353503 -20 18 C-19.61616631 15.52603554 -19.26537935 14.26352178 -17.46533203 12.47607422 C-16.81935059 12.0070166 -16.17336914 11.53795898 -15.5078125 11.0546875 C-14.80269531 10.53519531 -14.09757812 10.01570313 -13.37109375 9.48046875 C-12.62988281 8.95066406 -11.88867188 8.42085938 -11.125 7.875 C-10.39152344 7.33746094 -9.65804688 6.79992187 -8.90234375 6.24609375 C-5.96953244 4.10391281 -3.02230848 2.01487232 0 0 Z " fill="#FFFFFF" transform="translate(481,258)"/>
<path d="M0 0 C1.01707031 0.59748047 1.01707031 0.59748047 2.0546875 1.20703125 C10.82332124 6.19859422 19.66789759 10.4494676 30 9 C32.75933978 8.16062042 35.32839332 7.10549242 38 6 C38.99 6 39.98 6 41 6 C39.46584925 10.18755612 36.40145112 12.3153721 32.9375 14.875 C32.35548828 15.31263672 31.77347656 15.75027344 31.17382812 16.20117188 C19.99385777 24.54608911 12.45804703 29.26547458 -2 28 C-9.16682133 26.25296322 -15.08711993 22.28469571 -21 18 C-20.6245926 15.45693968 -20.27634663 14.25892459 -18.37353516 12.47607422 C-17.68565918 12.0070166 -16.9977832 11.53795898 -16.2890625 11.0546875 C-15.53882812 10.53519531 -14.78859375 10.01570313 -14.015625 9.48046875 C-13.22671875 8.95066406 -12.4378125 8.42085937 -11.625 7.875 C-10.84382813 7.33746094 -10.06265625 6.79992187 -9.2578125 6.24609375 C-6.1885239 4.13858565 -3.09786764 2.06524509 0 0 Z " fill="#FFFFFF" transform="translate(119,9)"/>
<path d="M0 0 C2.68661322 1.2222614 5.27026688 2.49656601 7.875 3.875 C9.30796588 4.62608945 10.74280941 5.3736097 12.1796875 6.1171875 C12.81632324 6.45347168 13.45295898 6.78975586 14.10888672 7.13623047 C22.6020806 11.01551267 31.58130521 9.00923558 40 6 C38.63919117 9.13413798 37.19848332 10.94979431 34.55078125 13.09375 C33.86693359 13.64933594 33.18308594 14.20492188 32.47851562 14.77734375 C31.76373047 15.34582031 31.04894531 15.91429687 30.3125 16.5 C29.61705078 17.06847656 28.92160156 17.63695312 28.20507812 18.22265625 C18.42863916 26.09127473 10.73251578 29.2317325 -2 28 C-9.30624057 26.05220799 -15.62403862 23.37596138 -21 18 C-20.63075955 15.36455966 -20.23188952 14.2181779 -18.26586914 12.3684082 C-17.52973389 11.85109131 -16.79359863 11.33377441 -16.03515625 10.80078125 C-15.23529297 10.23166016 -14.43542969 9.66253906 -13.61132812 9.07617188 C-12.77021484 8.49416016 -11.92910156 7.91214844 -11.0625 7.3125 C-10.22525391 6.71888672 -9.38800781 6.12527344 -8.52539062 5.51367188 C-2.43942637 1.21971318 -2.43942637 1.21971318 0 0 Z " fill="#FFFFFF" transform="translate(150,265)"/>
</svg>
